<svg width="315" height="67" viewBox="0 0 315 67" fill="none" xmlns="http://www.w3.org/2000/svg">
<rect width="315" height="67" rx="16" fill="#0D0D0D"/>
<path d="M76.2455 34.994C75.3635 35.876 74.0675 36.362 72.8975 36.362C69.6395 36.362 68.2715 34.076 68.2535 31.772C68.2355 29.45 69.6935 27.092 72.8975 27.092C74.0675 27.092 75.2555 27.506 76.1555 28.388L77.5055 27.092C76.2275 25.814 74.5895 25.184 72.8975 25.184C68.3975 25.184 66.2375 28.478 66.2555 31.79C66.2735 35.102 68.3255 38.252 72.8975 38.252C74.6615 38.252 76.3355 37.658 77.6315 36.38L76.2455 34.994ZM92.2317 37.64L88.4697 33.446C90.9537 33.086 91.8897 31.322 91.8897 29.522C91.8897 27.398 90.3597 25.4 87.4437 25.4C85.4817 25.4 83.5377 25.382 81.5757 25.382V38H83.5917V33.644H86.2557L90.0897 38H92.4477L92.2317 37.64ZM87.4437 27.236C89.0997 27.236 89.8377 28.424 89.8377 29.558C89.8377 30.746 89.0997 31.808 87.4257 31.808H83.5917V27.236H87.4437ZM98.4364 38V25.4H96.4384V38H98.4364ZM113.432 38H115.574L109.922 25.4H107.726L102.074 38H104.216L105.404 35.354H112.226L113.432 38ZM111.488 33.518H106.16L108.824 27.524L111.488 33.518ZM129.859 37.64L126.097 33.446C128.581 33.086 129.517 31.322 129.517 29.522C129.517 27.398 127.987 25.4 125.071 25.4C123.109 25.4 121.165 25.382 119.203 25.382V38H121.219V33.644H123.883L127.717 38H130.075L129.859 37.64ZM125.071 27.236C126.727 27.236 127.465 28.424 127.465 29.558C127.465 30.746 126.727 31.808 125.053 31.808H121.219V27.236H125.071ZM142.454 27.236H146.27C149.582 27.236 149.6 32.276 146.27 32.276H142.454V27.236ZM146.27 34.13C152.3 34.094 152.282 25.382 146.27 25.382C144.344 25.382 142.364 25.4 140.438 25.4V38H142.454V34.13H146.27ZM160.479 25.166C156.681 25.166 153.999 27.938 153.999 31.772C153.999 35.084 156.069 38.27 160.443 38.27C164.817 38.27 166.887 35.156 166.887 31.754C166.887 28.352 164.781 25.184 160.479 25.166ZM155.997 31.79C155.997 29.036 157.563 27.002 160.479 27.002C163.557 27.056 164.889 29.468 164.889 31.79C164.889 34.202 163.575 36.416 160.443 36.416C157.329 36.416 156.033 34.022 155.997 31.79ZM171.165 25.4V38H179.823V36.128H173.181V25.4H171.165ZM193.556 38H195.698L190.046 25.4H187.85L182.198 38H184.34L185.528 35.354H192.35L193.556 38ZM191.612 33.518H186.284L188.948 27.524L191.612 33.518ZM209.982 37.64L206.22 33.446C208.704 33.086 209.64 31.322 209.64 29.522C209.64 27.398 208.11 25.4 205.194 25.4C203.232 25.4 201.288 25.382 199.326 25.382V38H201.342V33.644H204.006L207.84 38H210.198L209.982 37.64ZM205.194 27.236C206.85 27.236 207.588 28.424 207.588 29.558C207.588 30.746 206.85 31.808 205.176 31.808H201.342V27.236H205.194ZM219.895 25.166C216.097 25.166 213.415 27.938 213.415 31.772C213.415 35.084 215.485 38.27 219.859 38.27C224.233 38.27 226.303 35.156 226.303 31.754C226.303 28.352 224.197 25.184 219.895 25.166ZM215.413 31.79C215.413 29.036 216.979 27.002 219.895 27.002C222.973 27.056 224.305 29.468 224.305 31.79C224.305 34.202 222.991 36.416 219.859 36.416C216.745 36.416 215.449 34.022 215.413 31.79ZM232.579 38V25.4H230.581V38H232.579ZM237.639 25.4V38C239.151 38 240.897 38 242.409 38C246.819 38 248.799 34.778 248.727 31.592C248.673 28.478 246.711 25.4 242.409 25.4H237.639ZM239.637 27.326H242.409C245.379 27.326 246.675 29.45 246.729 31.574C246.783 33.788 245.487 36.056 242.409 36.056H239.637V27.326Z" fill="white"/>
</svg>
