<svg width="315" height="67" viewBox="0 0 315 67" fill="none" xmlns="http://www.w3.org/2000/svg">
<rect width="315" height="67" rx="16" fill="#0D0D0D"/>
<path d="M74.7455 34.994C73.8635 35.876 72.5675 36.362 71.3975 36.362C68.1395 36.362 66.7715 34.076 66.7535 31.772C66.7355 29.45 68.1935 27.092 71.3975 27.092C72.5675 27.092 73.7555 27.506 74.6555 28.388L76.0055 27.092C74.7275 25.814 73.0895 25.184 71.3975 25.184C66.8975 25.184 64.7375 28.478 64.7555 31.79C64.7735 35.102 66.8255 38.252 71.3975 38.252C73.1615 38.252 74.8355 37.658 76.1315 36.38L74.7455 34.994ZM90.7317 37.64L86.9697 33.446C89.4537 33.086 90.3897 31.322 90.3897 29.522C90.3897 27.398 88.8597 25.4 85.9437 25.4C83.9817 25.4 82.0377 25.382 80.0757 25.382V38H82.0917V33.644H84.7557L88.5897 38H90.9477L90.7317 37.64ZM85.9437 27.236C87.5997 27.236 88.3377 28.424 88.3377 29.558C88.3377 30.746 87.5997 31.808 85.9257 31.808H82.0917V27.236H85.9437ZM96.9364 38V25.4H94.9384V38H96.9364ZM111.932 38H114.074L108.422 25.4H106.226L100.574 38H102.716L103.904 35.354H110.726L111.932 38ZM109.988 33.518H104.66L107.324 27.524L109.988 33.518ZM128.359 37.64L124.597 33.446C127.081 33.086 128.017 31.322 128.017 29.522C128.017 27.398 126.487 25.4 123.571 25.4C121.609 25.4 119.665 25.382 117.703 25.382V38H119.719V33.644H122.383L126.217 38H128.575L128.359 37.64ZM123.571 27.236C125.227 27.236 125.965 28.424 125.965 29.558C125.965 30.746 125.227 31.808 123.553 31.808H119.719V27.236H123.571ZM140.954 27.236H144.77C148.082 27.236 148.1 32.276 144.77 32.276H140.954V27.236ZM144.77 34.13C150.8 34.094 150.782 25.382 144.77 25.382C142.844 25.382 140.864 25.4 138.938 25.4V38H140.954V34.13H144.77ZM158.979 25.166C155.181 25.166 152.499 27.938 152.499 31.772C152.499 35.084 154.569 38.27 158.943 38.27C163.317 38.27 165.387 35.156 165.387 31.754C165.387 28.352 163.281 25.184 158.979 25.166ZM154.497 31.79C154.497 29.036 156.063 27.002 158.979 27.002C162.057 27.056 163.389 29.468 163.389 31.79C163.389 34.202 162.075 36.416 158.943 36.416C155.829 36.416 154.533 34.022 154.497 31.79ZM169.665 25.4V38H178.323V36.128H171.681V25.4H169.665ZM192.056 38H194.198L188.546 25.4H186.35L180.698 38H182.84L184.028 35.354H190.85L192.056 38ZM190.112 33.518H184.784L187.448 27.524L190.112 33.518ZM208.482 37.64L204.72 33.446C207.204 33.086 208.14 31.322 208.14 29.522C208.14 27.398 206.61 25.4 203.694 25.4C201.732 25.4 199.788 25.382 197.826 25.382V38H199.842V33.644H202.506L206.34 38H208.698L208.482 37.64ZM203.694 27.236C205.35 27.236 206.088 28.424 206.088 29.558C206.088 30.746 205.35 31.808 203.676 31.808H199.842V27.236H203.694ZM218.395 25.166C214.597 25.166 211.915 27.938 211.915 31.772C211.915 35.084 213.985 38.27 218.359 38.27C222.733 38.27 224.803 35.156 224.803 31.754C224.803 28.352 222.697 25.184 218.395 25.166ZM213.913 31.79C213.913 29.036 215.479 27.002 218.395 27.002C221.473 27.056 222.805 29.468 222.805 31.79C222.805 34.202 221.491 36.416 218.359 36.416C215.245 36.416 213.949 34.022 213.913 31.79ZM231.079 38V25.4H229.081V38H231.079ZM236.139 25.4V38C237.651 38 239.397 38 240.909 38C245.319 38 247.299 34.778 247.227 31.592C247.173 28.478 245.211 25.4 240.909 25.4H236.139ZM238.137 27.326H240.909C243.879 27.326 245.175 29.45 245.229 31.574C245.283 33.788 243.987 36.056 240.909 36.056H238.137V27.326Z" fill="white"/>
</svg>
