<svg width="315" height="67" viewBox="0 0 315 67" fill="none" xmlns="http://www.w3.org/2000/svg">
<rect width="315" height="67" rx="16" fill="#0D0D0D"/>
<path d="M95.719 25.4V38C97.231 38 98.977 38 100.489 38C104.899 38 106.879 34.778 106.807 31.592C106.753 28.478 104.791 25.4 100.489 25.4H95.719ZM97.717 27.326H100.489C103.459 27.326 104.755 29.45 104.809 31.574C104.863 33.788 103.567 36.056 100.489 36.056H97.717V27.326ZM116.815 25.166C113.017 25.166 110.335 27.938 110.335 31.772C110.335 35.084 112.405 38.27 116.779 38.27C121.153 38.27 123.223 35.156 123.223 31.754C123.223 28.352 121.117 25.184 116.815 25.166ZM112.333 31.79C112.333 29.036 113.899 27.002 116.815 27.002C119.893 27.056 121.225 29.468 121.225 31.79C121.225 34.202 119.911 36.416 116.779 36.416C113.665 36.416 112.369 34.022 112.333 31.79ZM144.591 25.4H142.341L139.209 35.102L135.879 25.4H134.583L131.325 35.102L128.121 25.4H125.871L130.443 38.018H132.207L133.863 33.59L135.249 29.342L136.635 33.572L138.309 38.018H140.091L144.591 25.4ZM149.941 25.4H148.393V38H150.427V29.108L157.573 38H159.103V25.4H157.087V34.364L149.941 25.4ZM164.17 25.4V38H172.828V36.128H166.186V25.4H164.17ZM182.031 25.166C178.233 25.166 175.551 27.938 175.551 31.772C175.551 35.084 177.621 38.27 181.995 38.27C186.369 38.27 188.439 35.156 188.439 31.754C188.439 28.352 186.333 25.184 182.031 25.166ZM177.549 31.79C177.549 29.036 179.115 27.002 182.031 27.002C185.109 27.056 186.441 29.468 186.441 31.79C186.441 34.202 185.127 36.416 181.995 36.416C178.881 36.416 177.585 34.022 177.549 31.79ZM202.179 38H204.321L198.669 25.4H196.473L190.821 38H192.963L194.151 35.354H200.973L202.179 38ZM200.235 33.518H194.907L197.571 27.524L200.235 33.518ZM207.949 25.4V38C209.461 38 211.207 38 212.719 38C217.129 38 219.109 34.778 219.037 31.592C218.983 28.478 217.021 25.4 212.719 25.4H207.949ZM209.947 27.326H212.719C215.689 27.326 216.985 29.45 217.039 31.574C217.093 33.788 215.797 36.056 212.719 36.056H209.947V27.326Z" fill="white"/>
</svg>
