<svg width="315" height="67" viewBox="0 0 315 67" fill="none" xmlns="http://www.w3.org/2000/svg">
<rect width="315" height="67" rx="16" fill="#0D0D0D"/>
<path d="M78.89 36.02H71.6V32.636H78.548V30.764H71.6V27.362H78.836V25.4H69.584C69.584 29.594 69.584 33.806 69.584 38H78.89V36.02ZM84.9224 25.4H83.3744V38H85.4084V29.108L92.5544 38H94.0844V25.4H92.0684V34.364L84.9224 25.4ZM110.329 25.4H108.079L104.047 35.642L100.033 25.4H97.7651L103.003 38.054H105.109L110.329 25.4ZM116.012 38V25.4H114.014V38H116.012ZM130.378 36.02H123.088V32.636H130.036V30.764H123.088V27.362H130.324V25.4H121.072C121.072 29.594 121.072 33.806 121.072 38H130.378V36.02ZM150.289 27.164C149.227 25.472 147.409 25.04 145.591 25.04C143.323 25.04 140.713 26.048 140.731 28.658C140.731 31.358 143.107 31.988 145.609 32.33C147.373 32.564 148.831 33.032 148.831 34.4C148.831 35.984 147.157 36.488 145.645 36.488C144.187 36.488 142.621 35.948 141.721 34.418L140.209 35.426C141.361 37.55 143.215 38.288 145.627 38.288C148.255 38.288 150.829 37.226 150.847 34.4C150.847 31.574 148.381 30.854 145.789 30.494C144.133 30.26 142.729 29.918 142.729 28.694C142.729 27.488 143.953 26.786 145.645 26.786C146.959 26.804 148.165 27.326 148.759 28.19L150.289 27.164ZM163.539 25.418V32.78C163.539 35.174 162.063 36.488 160.047 36.38C158.175 36.308 156.843 35.066 156.843 32.78V25.418H154.845V32.78C154.845 36.362 157.239 38.162 160.047 38.234C163.089 38.342 165.537 36.488 165.537 32.78V25.418H163.539ZM179.894 38H182.036L176.384 25.4H174.188L168.536 38H170.678L171.866 35.354H178.688L179.894 38ZM177.95 33.518H172.622L175.286 27.524L177.95 33.518ZM193.49 38V33.086H200.042V31.214H193.49V27.38H200.384V25.418H191.474V38H193.49ZM210.338 25.166C206.54 25.166 203.858 27.938 203.858 31.772C203.858 35.084 205.928 38.27 210.302 38.27C214.676 38.27 216.746 35.156 216.746 31.754C216.746 28.352 214.64 25.184 210.338 25.166ZM205.856 31.79C205.856 29.036 207.422 27.002 210.338 27.002C213.416 27.056 214.748 29.468 214.748 31.79C214.748 34.202 213.434 36.416 210.302 36.416C207.188 36.416 205.892 34.022 205.856 31.79ZM223.569 38H225.603V27.218H229.725V25.4C226.107 25.4 223.047 25.4 219.429 25.4V27.218H223.569V38ZM238.868 25.166C235.07 25.166 232.388 27.938 232.388 31.772C232.388 35.084 234.458 38.27 238.832 38.27C243.206 38.27 245.276 35.156 245.276 31.754C245.276 28.352 243.17 25.184 238.868 25.166ZM234.386 31.79C234.386 29.036 235.952 27.002 238.868 27.002C241.946 27.056 243.278 29.468 243.278 31.79C243.278 34.202 241.964 36.416 238.832 36.416C235.718 36.416 234.422 34.022 234.386 31.79Z" fill="white"/>
</svg>
