<svg width="315" height="67" viewBox="0 0 315 67" fill="none" xmlns="http://www.w3.org/2000/svg">
<rect width="315" height="67" rx="16" fill="#0D0D0D"/>
<path d="M78.6 30V25.086H85.152V23.214H78.6V19.38H85.494V17.418H76.584V30H78.6ZM95.4476 17.166C91.6496 17.166 88.9676 19.938 88.9676 23.772C88.9676 27.084 91.0376 30.27 95.4116 30.27C99.7856 30.27 101.856 27.156 101.856 23.754C101.856 20.352 99.7496 17.184 95.4476 17.166ZM90.9656 23.79C90.9656 21.036 92.5316 19.002 95.4476 19.002C98.5256 19.056 99.8576 21.468 99.8576 23.79C99.8576 26.202 98.5436 28.416 95.4116 28.416C92.2976 28.416 91.0016 26.022 90.9656 23.79ZM108.679 30H110.713V19.218H114.835V17.4C111.217 17.4 108.157 17.4 104.539 17.4V19.218H108.679V30ZM123.978 17.166C120.18 17.166 117.498 19.938 117.498 23.772C117.498 27.084 119.568 30.27 123.942 30.27C128.316 30.27 130.386 27.156 130.386 23.754C130.386 20.352 128.28 17.184 123.978 17.166ZM119.496 23.79C119.496 21.036 121.062 19.002 123.978 19.002C127.056 19.056 128.388 21.468 128.388 23.79C128.388 26.202 127.074 28.416 123.942 28.416C120.828 28.416 119.532 26.022 119.496 23.79ZM150.342 28.02H143.052V24.636H150V22.764H143.052V19.362H150.288V17.4H141.036C141.036 21.594 141.036 25.806 141.036 30H150.342V28.02ZM165.482 29.64L161.72 25.446C164.204 25.086 165.14 23.322 165.14 21.522C165.14 19.398 163.61 17.4 160.694 17.4C158.732 17.4 156.788 17.382 154.826 17.382V30H156.842V25.644H159.506L163.34 30H165.698L165.482 29.64ZM160.694 19.236C162.35 19.236 163.088 20.424 163.088 21.558C163.088 22.746 162.35 23.808 160.676 23.808H156.842V19.236H160.694ZM180.345 29.64L176.583 25.446C179.067 25.086 180.003 23.322 180.003 21.522C180.003 19.398 178.473 17.4 175.557 17.4C173.595 17.4 171.651 17.382 169.689 17.382V30H171.705V25.644H174.369L178.203 30H180.561L180.345 29.64ZM175.557 19.236C177.213 19.236 177.951 20.424 177.951 21.558C177.951 22.746 177.213 23.808 175.539 23.808H171.705V19.236H175.557ZM194.488 30H196.63L190.978 17.4H188.782L183.13 30H185.272L186.46 27.354H193.282L194.488 30ZM192.544 25.518H187.216L189.88 19.524L192.544 25.518ZM200.258 17.4V30C201.77 30 203.516 30 205.028 30C209.438 30 211.418 26.778 211.346 23.592C211.292 20.478 209.33 17.4 205.028 17.4H200.258ZM202.256 19.326H205.028C207.998 19.326 209.294 21.45 209.348 23.574C209.402 25.788 208.106 28.056 205.028 28.056H202.256V19.326ZM225.074 30H227.216L221.564 17.4H219.368L213.716 30H215.858L217.046 27.354H223.868L225.074 30ZM223.13 25.518H217.802L220.466 19.524L223.13 25.518ZM232.143 28.83C232.143 30.486 234.663 30.486 234.663 28.83C234.663 27.156 232.143 27.156 232.143 28.83ZM231.009 21.108C231.027 19.686 232.539 19.056 233.817 19.056C235.095 19.056 236.607 19.416 236.607 21.054C236.607 22.314 235.563 22.53 234.591 22.98C233.313 23.52 232.395 24.168 232.395 26.634L234.393 26.652C234.393 25.446 234.627 24.978 235.455 24.6C236.517 23.988 238.677 23.628 238.677 21.072C238.713 18.318 236.337 17.292 233.853 17.292C231.387 17.292 229.047 18.426 229.047 21.108H231.009Z" fill="white"/>
<path d="M87.274 40.572C86.448 39.256 85.034 38.92 83.62 38.92C81.856 38.92 79.826 39.704 79.84 41.734C79.84 43.834 81.688 44.324 83.634 44.59C85.006 44.772 86.14 45.136 86.14 46.2C86.14 47.432 84.838 47.824 83.662 47.824C82.528 47.824 81.31 47.404 80.61 46.214L79.434 46.998C80.33 48.65 81.772 49.224 83.648 49.224C85.692 49.224 87.694 48.398 87.708 46.2C87.708 44.002 85.79 43.442 83.774 43.162C82.486 42.98 81.394 42.714 81.394 41.762C81.394 40.824 82.346 40.278 83.662 40.278C84.684 40.292 85.622 40.698 86.084 41.37L87.274 40.572ZM98.1822 47.46H92.5122V44.828H97.9162V43.372H92.5122V40.726H98.1402V39.2H90.9442C90.9442 42.462 90.9442 45.738 90.9442 49H98.1822V47.46ZM101.67 39.2V49H108.404V47.544H103.238V39.2H101.67ZM118.595 47.46H112.925V44.828H118.329V43.372H112.925V40.726H118.553V39.2H111.357C111.357 42.462 111.357 45.738 111.357 49H118.595V47.46ZM129.155 46.662C128.469 47.348 127.461 47.726 126.551 47.726C124.017 47.726 122.953 45.948 122.939 44.156C122.925 42.35 124.059 40.516 126.551 40.516C127.461 40.516 128.385 40.838 129.085 41.524L130.135 40.516C129.141 39.522 127.867 39.032 126.551 39.032C123.051 39.032 121.371 41.594 121.385 44.17C121.399 46.746 122.995 49.196 126.551 49.196C127.923 49.196 129.225 48.734 130.233 47.74L129.155 46.662ZM134.855 49V39.2H133.301V49H134.855ZM143.228 39.018C140.274 39.018 138.188 41.174 138.188 44.156C138.188 46.732 139.798 49.21 143.2 49.21C146.602 49.21 148.212 46.788 148.212 44.142C148.212 41.496 146.574 39.032 143.228 39.018ZM139.742 44.17C139.742 42.028 140.96 40.446 143.228 40.446C145.622 40.488 146.658 42.364 146.658 44.17C146.658 46.046 145.636 47.768 143.2 47.768C140.778 47.768 139.77 45.906 139.742 44.17ZM152.744 39.2H151.54V49H153.122V42.084L158.68 49H159.87V39.2H158.302V46.172L152.744 39.2ZM171.048 47.46H165.378V44.828H170.782V43.372H165.378V40.726H171.006V39.2H163.81C163.81 42.462 163.81 45.738 163.81 49H171.048V47.46ZM183.931 39.018C180.977 39.018 178.891 41.174 178.891 44.156C178.891 46.732 180.501 49.21 183.903 49.21C187.305 49.21 188.915 46.788 188.915 44.142C188.915 41.496 187.277 39.032 183.931 39.018ZM180.445 44.17C180.445 42.028 181.663 40.446 183.931 40.446C186.325 40.488 187.361 42.364 187.361 44.17C187.361 46.046 186.339 47.768 183.903 47.768C181.481 47.768 180.473 45.906 180.445 44.17ZM198.878 39.214V44.94C198.878 46.802 197.73 47.824 196.162 47.74C194.706 47.684 193.67 46.718 193.67 44.94V39.214H192.116V44.94C192.116 47.726 193.978 49.126 196.162 49.182C198.528 49.266 200.432 47.824 200.432 44.94V39.214H198.878ZM206.465 49H208.047V40.614H211.253V39.2C208.439 39.2 206.059 39.2 203.245 39.2V40.614H206.465V49ZM222.487 48.72L219.561 45.458C221.493 45.178 222.221 43.806 222.221 42.406C222.221 40.754 221.031 39.2 218.763 39.2C217.237 39.2 215.725 39.186 214.199 39.186V49H215.767V45.612H217.839L220.821 49H222.655L222.487 48.72ZM218.763 40.628C220.051 40.628 220.625 41.552 220.625 42.434C220.625 43.358 220.051 44.184 218.749 44.184H215.767V40.628H218.763ZM233.487 49H235.153L230.757 39.2H229.049L224.653 49H226.319L227.243 46.942H232.549L233.487 49ZM231.975 45.514H227.831L229.903 40.852L231.975 45.514Z" fill="white"/>
</svg>
