<svg width="183" height="55" viewBox="0 0 183 55" fill="none" xmlns="http://www.w3.org/2000/svg">
<g filter="url(#filter0_d_19_137)">
<path d="M17.6 22.236H21.416C24.728 22.236 24.746 27.276 21.416 27.276H17.6V22.236ZM21.416 29.13C27.446 29.094 27.428 20.382 21.416 20.382C19.49 20.382 17.51 20.4 15.584 20.4V33H17.6V29.13H21.416ZM35.6253 20.166C31.8273 20.166 29.1453 22.938 29.1453 26.772C29.1453 30.084 31.2153 33.27 35.5893 33.27C39.9633 33.27 42.0333 30.156 42.0333 26.754C42.0333 23.352 39.9273 20.184 35.6253 20.166ZM31.1433 26.79C31.1433 24.036 32.7093 22.002 35.6253 22.002C38.7033 22.056 40.0353 24.468 40.0353 26.79C40.0353 29.202 38.7213 31.416 35.5893 31.416C32.4753 31.416 31.1793 29.022 31.1433 26.79ZM46.3113 20.4V33H54.9693V31.128H48.3273V20.4H46.3113ZM68.7017 33H70.8437L65.1917 20.4H62.9957L57.3437 33H59.4857L60.6737 30.354H67.4957L68.7017 33ZM66.7577 28.518H61.4297L64.0937 22.524L66.7577 28.518ZM85.1281 32.64L81.3661 28.446C83.8501 28.086 84.7861 26.322 84.7861 24.522C84.7861 22.398 83.2561 20.4 80.3401 20.4C78.3781 20.4 76.4341 20.382 74.4721 20.382V33H76.4881V28.644H79.1521L82.9861 33H85.3441L85.1281 32.64ZM80.3401 22.236C81.9961 22.236 82.7341 23.424 82.7341 24.558C82.7341 25.746 81.9961 26.808 80.3221 26.808H76.4881V22.236H80.3401ZM95.0408 20.166C91.2428 20.166 88.5608 22.938 88.5608 26.772C88.5608 30.084 90.6308 33.27 95.0048 33.27C99.3788 33.27 101.449 30.156 101.449 26.754C101.449 23.352 99.3428 20.184 95.0408 20.166ZM90.5588 26.79C90.5588 24.036 92.1248 22.002 95.0408 22.002C98.1188 22.056 99.4508 24.468 99.4508 26.79C99.4508 29.202 98.1368 31.416 95.0048 31.416C91.8908 31.416 90.5948 29.022 90.5588 26.79ZM107.725 33V20.4H105.727V33H107.725ZM112.785 20.4V33C114.297 33 116.043 33 117.555 33C121.965 33 123.945 29.778 123.873 26.592C123.819 23.478 121.857 20.4 117.555 20.4H112.785ZM114.783 22.326H117.555C120.525 22.326 121.821 24.45 121.875 26.574C121.929 28.788 120.633 31.056 117.555 31.056H114.783V22.326Z" fill="#141414"/>
<path d="M143.904 34.76C144.128 34.4427 144.389 34.2747 144.688 34.256H144.828C145.015 34.256 145.183 34.284 145.332 34.34C145.5 34.396 145.659 34.508 145.808 34.676C145.995 34.8813 146.2 35.0213 146.424 35.096C146.648 35.1707 146.993 35.236 147.46 35.292C147.591 35.3107 147.712 35.32 147.824 35.32C147.936 35.32 148.057 35.32 148.188 35.32C148.505 35.32 148.804 35.3107 149.084 35.292C149.383 35.2547 149.653 35.1893 149.896 35.096C150.139 34.984 150.353 34.8253 150.54 34.62C150.727 34.4147 150.867 34.144 150.96 33.808C151.016 33.6027 151.044 33.444 151.044 33.332C151.044 33.22 151.025 32.996 150.988 32.66C150.951 32.3427 150.913 32.1093 150.876 31.96C150.839 31.8107 150.745 31.6147 150.596 31.372C150.223 30.7 149.84 30.14 149.448 29.692C149.075 29.2253 148.627 28.7213 148.104 28.18C147.507 27.564 147.012 27.0227 146.62 26.556C146.228 26.0707 145.901 25.6227 145.64 25.212C145.397 24.8013 145.201 24.4093 145.052 24.036C144.921 23.6627 144.828 23.2613 144.772 22.832C144.735 22.5707 144.707 22.3373 144.688 22.132C144.688 21.9267 144.707 21.7213 144.744 21.516C144.837 20.8627 145.08 20.1627 145.472 19.416C145.864 18.6693 146.349 17.9787 146.928 17.344C147.507 16.7093 148.151 16.1867 148.86 15.776C149.569 15.3653 150.288 15.16 151.016 15.16C151.632 15.16 152.145 15.2907 152.556 15.552C152.985 15.8133 153.368 16.196 153.704 16.7C154.208 17.4467 154.255 18.0533 153.844 18.52C153.639 18.7813 153.387 18.8933 153.088 18.856C152.752 18.856 152.379 18.6507 151.968 18.24C151.893 18.1467 151.809 18.0533 151.716 17.96C151.641 17.8667 151.576 17.8013 151.52 17.764C151.445 17.708 151.343 17.6613 151.212 17.624C151.175 17.624 151.137 17.6333 151.1 17.652C151.063 17.652 151.007 17.6613 150.932 17.68C150.577 17.7547 150.195 17.9413 149.784 18.24C149.392 18.52 149.028 18.856 148.692 19.248C148.356 19.64 148.057 20.0507 147.796 20.48C147.553 20.9093 147.404 21.292 147.348 21.628C147.311 21.8707 147.311 22.1787 147.348 22.552C147.404 22.9067 147.479 23.196 147.572 23.42C147.721 23.7747 147.973 24.176 148.328 24.624C148.701 25.072 149.215 25.6227 149.868 26.276C150.82 27.228 151.576 28.1053 152.136 28.908C152.696 29.692 153.107 30.476 153.368 31.26C153.592 31.932 153.685 32.5947 153.648 33.248C153.629 33.9013 153.489 34.5173 153.228 35.096C152.985 35.656 152.631 36.16 152.164 36.608C151.716 37.056 151.184 37.392 150.568 37.616C150.251 37.728 149.896 37.812 149.504 37.868C149.112 37.9427 148.748 37.98 148.412 37.98C148.281 37.98 148.104 37.9707 147.88 37.952C147.675 37.9333 147.46 37.9053 147.236 37.868C147.012 37.8493 146.788 37.8213 146.564 37.784C146.359 37.7653 146.191 37.7373 146.06 37.7C144.641 37.3827 143.857 36.7107 143.708 35.684C143.652 35.3293 143.717 35.0213 143.904 34.76ZM157.489 27.256C157.507 26.64 157.629 25.9307 157.853 25.128C158.077 24.3067 158.385 23.532 158.777 22.804C159.187 22.076 159.673 21.46 160.233 20.956C160.811 20.452 161.455 20.2 162.165 20.2C162.407 20.2 162.575 20.2093 162.669 20.228C162.781 20.2467 162.921 20.3027 163.089 20.396C163.387 20.5453 163.639 20.7507 163.845 21.012C164.069 21.2733 164.237 21.5627 164.349 21.88C164.461 22.1973 164.517 22.5427 164.517 22.916C164.535 23.2707 164.479 23.616 164.349 23.952C164.274 24.176 164.143 24.4187 163.957 24.68C163.77 24.9413 163.565 25.1933 163.341 25.436C163.117 25.6787 162.874 25.912 162.613 26.136C162.351 26.3413 162.09 26.5093 161.829 26.64C161.567 26.7893 161.371 26.8827 161.241 26.92C161.129 26.9387 160.942 26.948 160.681 26.948H160.121V27.62C160.121 27.8813 160.121 28.0773 160.121 28.208C160.139 28.32 160.186 28.4227 160.261 28.516C160.391 28.684 160.541 28.824 160.709 28.936C160.877 29.048 161.082 29.104 161.325 29.104C161.605 29.104 161.866 29.0387 162.109 28.908C162.407 28.7587 162.799 28.488 163.285 28.096C163.77 27.6853 164.293 27.2093 164.853 26.668C165.151 26.388 165.394 26.164 165.581 25.996C165.767 25.828 165.926 25.6973 166.057 25.604C166.187 25.5107 166.299 25.4547 166.393 25.436C166.505 25.3987 166.626 25.38 166.757 25.38C167.018 25.38 167.233 25.436 167.401 25.548C167.587 25.66 167.718 25.8093 167.793 25.996C167.886 26.1827 167.923 26.3973 167.905 26.64C167.905 26.8827 167.839 27.116 167.709 27.34C167.653 27.452 167.513 27.6293 167.289 27.872C167.065 28.1147 166.803 28.376 166.505 28.656C166.225 28.936 165.935 29.216 165.637 29.496C165.357 29.7573 165.123 29.9627 164.937 30.112C164.358 30.56 163.882 30.896 163.509 31.12C163.135 31.3253 162.753 31.4747 162.361 31.568C162.211 31.6053 162.025 31.6427 161.801 31.68C161.577 31.6987 161.362 31.6987 161.157 31.68C160.522 31.6613 159.897 31.4747 159.281 31.12C158.683 30.7467 158.235 30.28 157.937 29.72C157.731 29.3467 157.591 28.992 157.517 28.656C157.461 28.3013 157.451 27.8347 157.489 27.256ZM160.877 24.4C160.877 24.4187 160.914 24.4 160.989 24.344C161.063 24.2693 161.147 24.1853 161.241 24.092C161.353 23.98 161.455 23.868 161.549 23.756C161.661 23.6253 161.745 23.5227 161.801 23.448C161.838 23.3733 161.866 23.2987 161.885 23.224C161.922 23.1493 161.941 23.0933 161.941 23.056C161.922 23.0187 161.913 23 161.913 23C161.857 23 161.773 23.0653 161.661 23.196C161.549 23.3267 161.427 23.476 161.297 23.644C161.185 23.812 161.082 23.9707 160.989 24.12C160.914 24.2693 160.877 24.3627 160.877 24.4Z" fill="#141414"/>
<path d="M130.17 28.626H136.722V26.952H130.17V28.626Z" fill="#141414"/>
</g>
<mask id="mask0_19_137" style="mask-type:alpha" maskUnits="userSpaceOnUse" x="15" y="15" width="153" height="23">
<path d="M17.6 22.236H21.416C24.728 22.236 24.746 27.276 21.416 27.276H17.6V22.236ZM21.416 29.13C27.446 29.094 27.428 20.382 21.416 20.382C19.49 20.382 17.51 20.4 15.584 20.4V33H17.6V29.13H21.416ZM35.6253 20.166C31.8273 20.166 29.1453 22.938 29.1453 26.772C29.1453 30.084 31.2153 33.27 35.5893 33.27C39.9633 33.27 42.0333 30.156 42.0333 26.754C42.0333 23.352 39.9273 20.184 35.6253 20.166ZM31.1433 26.79C31.1433 24.036 32.7093 22.002 35.6253 22.002C38.7033 22.056 40.0353 24.468 40.0353 26.79C40.0353 29.202 38.7213 31.416 35.5893 31.416C32.4753 31.416 31.1793 29.022 31.1433 26.79ZM46.3113 20.4V33H54.9693V31.128H48.3273V20.4H46.3113ZM68.7017 33H70.8437L65.1917 20.4H62.9957L57.3437 33H59.4857L60.6737 30.354H67.4957L68.7017 33ZM66.7577 28.518H61.4297L64.0937 22.524L66.7577 28.518ZM85.1281 32.64L81.3661 28.446C83.8501 28.086 84.7861 26.322 84.7861 24.522C84.7861 22.398 83.2561 20.4 80.3401 20.4C78.3781 20.4 76.4341 20.382 74.4721 20.382V33H76.4881V28.644H79.1521L82.9861 33H85.3441L85.1281 32.64ZM80.3401 22.236C81.9961 22.236 82.7341 23.424 82.7341 24.558C82.7341 25.746 81.9961 26.808 80.3221 26.808H76.4881V22.236H80.3401ZM95.0408 20.166C91.2428 20.166 88.5608 22.938 88.5608 26.772C88.5608 30.084 90.6308 33.27 95.0048 33.27C99.3788 33.27 101.449 30.156 101.449 26.754C101.449 23.352 99.3428 20.184 95.0408 20.166ZM90.5588 26.79C90.5588 24.036 92.1248 22.002 95.0408 22.002C98.1188 22.056 99.4508 24.468 99.4508 26.79C99.4508 29.202 98.1368 31.416 95.0048 31.416C91.8908 31.416 90.5948 29.022 90.5588 26.79ZM107.725 33V20.4H105.727V33H107.725ZM112.785 20.4V33C114.297 33 116.043 33 117.555 33C121.965 33 123.945 29.778 123.873 26.592C123.819 23.478 121.857 20.4 117.555 20.4H112.785ZM114.783 22.326H117.555C120.525 22.326 121.821 24.45 121.875 26.574C121.929 28.788 120.633 31.056 117.555 31.056H114.783V22.326Z" fill="#141414"/>
<path d="M143.904 34.76C144.128 34.4427 144.389 34.2747 144.688 34.256H144.828C145.015 34.256 145.183 34.284 145.332 34.34C145.5 34.396 145.659 34.508 145.808 34.676C145.995 34.8813 146.2 35.0213 146.424 35.096C146.648 35.1707 146.993 35.236 147.46 35.292C147.591 35.3107 147.712 35.32 147.824 35.32C147.936 35.32 148.057 35.32 148.188 35.32C148.505 35.32 148.804 35.3107 149.084 35.292C149.383 35.2547 149.653 35.1893 149.896 35.096C150.139 34.984 150.353 34.8253 150.54 34.62C150.727 34.4147 150.867 34.144 150.96 33.808C151.016 33.6027 151.044 33.444 151.044 33.332C151.044 33.22 151.025 32.996 150.988 32.66C150.951 32.3427 150.913 32.1093 150.876 31.96C150.839 31.8107 150.745 31.6147 150.596 31.372C150.223 30.7 149.84 30.14 149.448 29.692C149.075 29.2253 148.627 28.7213 148.104 28.18C147.507 27.564 147.012 27.0227 146.62 26.556C146.228 26.0707 145.901 25.6227 145.64 25.212C145.397 24.8013 145.201 24.4093 145.052 24.036C144.921 23.6627 144.828 23.2613 144.772 22.832C144.735 22.5707 144.707 22.3373 144.688 22.132C144.688 21.9267 144.707 21.7213 144.744 21.516C144.837 20.8627 145.08 20.1627 145.472 19.416C145.864 18.6693 146.349 17.9787 146.928 17.344C147.507 16.7093 148.151 16.1867 148.86 15.776C149.569 15.3653 150.288 15.16 151.016 15.16C151.632 15.16 152.145 15.2907 152.556 15.552C152.985 15.8133 153.368 16.196 153.704 16.7C154.208 17.4467 154.255 18.0533 153.844 18.52C153.639 18.7813 153.387 18.8933 153.088 18.856C152.752 18.856 152.379 18.6507 151.968 18.24C151.893 18.1467 151.809 18.0533 151.716 17.96C151.641 17.8667 151.576 17.8013 151.52 17.764C151.445 17.708 151.343 17.6613 151.212 17.624C151.175 17.624 151.137 17.6333 151.1 17.652C151.063 17.652 151.007 17.6613 150.932 17.68C150.577 17.7547 150.195 17.9413 149.784 18.24C149.392 18.52 149.028 18.856 148.692 19.248C148.356 19.64 148.057 20.0507 147.796 20.48C147.553 20.9093 147.404 21.292 147.348 21.628C147.311 21.8707 147.311 22.1787 147.348 22.552C147.404 22.9067 147.479 23.196 147.572 23.42C147.721 23.7747 147.973 24.176 148.328 24.624C148.701 25.072 149.215 25.6227 149.868 26.276C150.82 27.228 151.576 28.1053 152.136 28.908C152.696 29.692 153.107 30.476 153.368 31.26C153.592 31.932 153.685 32.5947 153.648 33.248C153.629 33.9013 153.489 34.5173 153.228 35.096C152.985 35.656 152.631 36.16 152.164 36.608C151.716 37.056 151.184 37.392 150.568 37.616C150.251 37.728 149.896 37.812 149.504 37.868C149.112 37.9427 148.748 37.98 148.412 37.98C148.281 37.98 148.104 37.9707 147.88 37.952C147.675 37.9333 147.46 37.9053 147.236 37.868C147.012 37.8493 146.788 37.8213 146.564 37.784C146.359 37.7653 146.191 37.7373 146.06 37.7C144.641 37.3827 143.857 36.7107 143.708 35.684C143.652 35.3293 143.717 35.0213 143.904 34.76ZM157.489 27.256C157.507 26.64 157.629 25.9307 157.853 25.128C158.077 24.3067 158.385 23.532 158.777 22.804C159.187 22.076 159.673 21.46 160.233 20.956C160.811 20.452 161.455 20.2 162.165 20.2C162.407 20.2 162.575 20.2093 162.669 20.228C162.781 20.2467 162.921 20.3027 163.089 20.396C163.387 20.5453 163.639 20.7507 163.845 21.012C164.069 21.2733 164.237 21.5627 164.349 21.88C164.461 22.1973 164.517 22.5427 164.517 22.916C164.535 23.2707 164.479 23.616 164.349 23.952C164.274 24.176 164.143 24.4187 163.957 24.68C163.77 24.9413 163.565 25.1933 163.341 25.436C163.117 25.6787 162.874 25.912 162.613 26.136C162.351 26.3413 162.09 26.5093 161.829 26.64C161.567 26.7893 161.371 26.8827 161.241 26.92C161.129 26.9387 160.942 26.948 160.681 26.948H160.121V27.62C160.121 27.8813 160.121 28.0773 160.121 28.208C160.139 28.32 160.186 28.4227 160.261 28.516C160.391 28.684 160.541 28.824 160.709 28.936C160.877 29.048 161.082 29.104 161.325 29.104C161.605 29.104 161.866 29.0387 162.109 28.908C162.407 28.7587 162.799 28.488 163.285 28.096C163.77 27.6853 164.293 27.2093 164.853 26.668C165.151 26.388 165.394 26.164 165.581 25.996C165.767 25.828 165.926 25.6973 166.057 25.604C166.187 25.5107 166.299 25.4547 166.393 25.436C166.505 25.3987 166.626 25.38 166.757 25.38C167.018 25.38 167.233 25.436 167.401 25.548C167.587 25.66 167.718 25.8093 167.793 25.996C167.886 26.1827 167.923 26.3973 167.905 26.64C167.905 26.8827 167.839 27.116 167.709 27.34C167.653 27.452 167.513 27.6293 167.289 27.872C167.065 28.1147 166.803 28.376 166.505 28.656C166.225 28.936 165.935 29.216 165.637 29.496C165.357 29.7573 165.123 29.9627 164.937 30.112C164.358 30.56 163.882 30.896 163.509 31.12C163.135 31.3253 162.753 31.4747 162.361 31.568C162.211 31.6053 162.025 31.6427 161.801 31.68C161.577 31.6987 161.362 31.6987 161.157 31.68C160.522 31.6613 159.897 31.4747 159.281 31.12C158.683 30.7467 158.235 30.28 157.937 29.72C157.731 29.3467 157.591 28.992 157.517 28.656C157.461 28.3013 157.451 27.8347 157.489 27.256ZM160.877 24.4C160.877 24.4187 160.914 24.4 160.989 24.344C161.063 24.2693 161.147 24.1853 161.241 24.092C161.353 23.98 161.455 23.868 161.549 23.756C161.661 23.6253 161.745 23.5227 161.801 23.448C161.838 23.3733 161.866 23.2987 161.885 23.224C161.922 23.1493 161.941 23.0933 161.941 23.056C161.922 23.0187 161.913 23 161.913 23C161.857 23 161.773 23.0653 161.661 23.196C161.549 23.3267 161.427 23.476 161.297 23.644C161.185 23.812 161.082 23.9707 160.989 24.12C160.914 24.2693 160.877 24.3627 160.877 24.4Z" fill="#141414"/>
<path d="M130.17 28.626H136.722V26.952H130.17V28.626Z" fill="#141414"/>
</mask>
<g mask="url(#mask0_19_137)">
<g filter="url(#filter1_d_19_137)">
<rect x="15" y="31" width="153" height="8" rx="1" fill="url(#paint0_linear_19_137)"/>
</g>
</g>
<defs>
<filter id="filter0_d_19_137" x="0.583984" y="0.16" width="182.349" height="52.82" filterUnits="userSpaceOnUse" color-interpolation-filters="sRGB">
<feFlood flood-opacity="0" result="BackgroundImageFix"/>
<feColorMatrix in="SourceAlpha" type="matrix" values="0 0 0 0 0 0 0 0 0 0 0 0 0 0 0 0 0 0 127 0" result="hardAlpha"/>
<feOffset/>
<feGaussianBlur stdDeviation="7.5"/>
<feComposite in2="hardAlpha" operator="out"/>
<feColorMatrix type="matrix" values="0 0 0 0 0 0 0 0 0 0 0 0 0 0 0 0 0 0 0.5 0"/>
<feBlend mode="normal" in2="BackgroundImageFix" result="effect1_dropShadow_19_137"/>
<feBlend mode="normal" in="SourceGraphic" in2="effect1_dropShadow_19_137" result="shape"/>
</filter>
<filter id="filter1_d_19_137" x="11" y="31" width="161" height="16" filterUnits="userSpaceOnUse" color-interpolation-filters="sRGB">
<feFlood flood-opacity="0" result="BackgroundImageFix"/>
<feColorMatrix in="SourceAlpha" type="matrix" values="0 0 0 0 0 0 0 0 0 0 0 0 0 0 0 0 0 0 127 0" result="hardAlpha"/>
<feOffset dy="4"/>
<feGaussianBlur stdDeviation="2"/>
<feComposite in2="hardAlpha" operator="out"/>
<feColorMatrix type="matrix" values="0 0 0 0 0 0 0 0 0 0 0 0 0 0 0 0 0 0 0.25 0"/>
<feBlend mode="normal" in2="BackgroundImageFix" result="effect1_dropShadow_19_137"/>
<feBlend mode="normal" in="SourceGraphic" in2="effect1_dropShadow_19_137" result="shape"/>
</filter>
<linearGradient id="paint0_linear_19_137" x1="15" y1="35" x2="168" y2="35.0001" gradientUnits="userSpaceOnUse">
<stop stop-color="#FF5B5B"/>
<stop offset="0.230282" stop-color="#EAFF69"/>
<stop offset="0.419637" stop-color="#4BFF73"/>
<stop offset="0.644988" stop-color="#42BBFF"/>
<stop offset="0.781731" stop-color="#923DFF"/>
<stop offset="0.867205" stop-color="#FF77F1"/>
<stop offset="0.960721" stop-color="#FF5353"/>
<stop offset="1" stop-color="#FF0000"/>
</linearGradient>
</defs>
</svg>
