<svg width="282" height="393" viewBox="0 0 282 393" fill="none" xmlns="http://www.w3.org/2000/svg">
<rect x="77.75" y="67.75" width="202.594" height="323.539" stroke="black" stroke-opacity="0.8" stroke-width="1.5"/>
<rect x="100.75" y="102.75" width="157.24" height="232.831" stroke="black" stroke-opacity="0.8" stroke-width="1.5"/>
<path d="M118.86 371H120.6V357H118.86V371ZM125.971 361.12V371H127.591V365.7C127.591 363.92 128.831 362.5 130.631 362.48C132.511 362.48 133.631 363.66 133.631 365.56V371H135.271V365.54C135.271 362.64 133.431 360.96 130.931 360.96C129.611 360.96 128.411 361.5 127.551 362.68L127.471 361.1H125.971V361.12ZM146.599 363.3L147.539 362.22C146.479 361.26 145.259 360.9 143.779 360.9C141.879 360.88 139.759 361.7 139.779 363.8C139.779 365.9 141.819 366.4 143.719 366.64C145.239 366.82 146.399 367.14 146.379 368.22C146.339 369.42 144.959 369.76 143.879 369.76C142.659 369.76 141.239 369.32 140.359 368.24L139.419 369.38C140.539 370.78 142.179 371.24 143.839 371.24C146.059 371.24 147.939 370.26 147.979 368.28C148.019 365.84 145.619 365.48 143.819 365.26C142.579 365.12 141.379 364.82 141.359 363.8C141.339 362.82 142.439 362.34 143.799 362.36C144.819 362.36 145.719 362.54 146.579 363.32L146.599 363.3ZM155.1 358.24L153.46 358.42V361.14H151.48V362.54H153.46V367.76C153.46 369.94 154.46 371.18 156.58 371.14C157.24 371.12 157.84 370.96 158.5 370.66L158.02 369.3C157.58 369.52 157.08 369.66 156.64 369.66C155.46 369.66 155.08 368.92 155.08 367.76V362.54H158.16V361.14H155.1V358.24ZM170.529 371H172.109V361.12H170.509L170.489 362.92C169.769 361.64 168.309 360.96 166.829 360.96C164.009 360.94 161.749 362.86 161.749 366.06C161.749 369.28 163.969 371.24 166.809 371.24C168.169 371.24 169.669 370.6 170.449 369.24L170.489 371.04L170.529 371ZM166.909 362.5C171.649 362.5 171.649 369.74 166.889 369.74C164.929 369.74 163.349 368.32 163.349 366.12C163.349 363.92 164.929 362.52 166.889 362.52L166.909 362.5ZM176.023 370.96V371H177.843L180.643 367L183.423 371H185.303V370.96L181.683 365.94L185.043 361.18V361.12H183.163L180.643 364.86L178.083 361.12H176.263V361.18L179.583 365.94L176.023 370.96ZM209.023 359.52V371H210.743V357H208.663L203.783 364.2L198.863 357H196.783V371H198.503V359.48L203.583 366.6H203.943L209.023 359.52ZM215.958 358.1C215.958 359.54 218.118 359.54 218.118 358.12C218.118 356.68 215.958 356.68 215.958 358.1ZM216.198 361.08H217.838V371H216.198V361.08ZM222.947 361.12V371H224.567V365.7C224.567 363.92 225.807 362.5 227.607 362.48C229.487 362.48 230.607 363.66 230.607 365.56V371H232.247V365.54C232.247 362.64 230.407 360.96 227.907 360.96C226.587 360.96 225.387 361.5 224.527 362.68L224.447 361.1H222.947V361.12ZM236.975 358.1C236.975 359.54 239.135 359.54 239.135 358.12C239.135 356.68 236.975 356.68 236.975 358.1ZM237.215 361.08H238.855V371H237.215V361.08Z" fill="black"/>
<line x1="77.75" y1="23" x2="77.75" y2="44" stroke="black" stroke-opacity="0.8" stroke-width="1.5"/>
<line x1="279.75" y1="23" x2="279.75" y2="44" stroke="black" stroke-opacity="0.8" stroke-width="1.5"/>
<line x1="78.5" y1="32.75" x2="279.5" y2="32.75" stroke="black" stroke-opacity="0.8" stroke-width="1.5"/>
<line x1="38" y1="390.75" x2="59" y2="390.75" stroke="black" stroke-opacity="0.8" stroke-width="1.5"/>
<line x1="38" y1="67.75" x2="59" y2="67.75" stroke="black" stroke-opacity="0.8" stroke-width="1.5"/>
<line x1="47.75" y1="390" x2="47.75" y2="68" stroke="black" stroke-opacity="0.8" stroke-width="1.5"/>
<path d="M148.17 7.22H144.47V3.6L152.69 3.6V2L142.77 2V8.86L148.17 8.86C150.53 8.86 151.75 9.98 151.75 11.62C151.75 13.4 150.23 14.48 148.01 14.48C146.39 14.48 144.25 14.02 144.25 11.98H142.51C142.53 15.16 145.27 16.12 148.05 16.12C151.35 16.12 153.49 14.3 153.49 11.6C153.49 8.92 151.57 7.22 148.17 7.22ZM157.834 15.1C157.834 16.54 159.994 16.54 159.994 15.12C159.994 13.68 157.834 13.68 157.834 15.1ZM172.239 13.06V16H173.999V13.06H175.699V11.44H173.999V2L171.199 2L163.919 11.14L164.159 13.06L172.239 13.06ZM172.239 11.44L165.759 11.44L172.239 3.32V11.44ZM195.66 14.68L194.56 13.58C193.86 14.3 192.92 14.62 191.98 14.62C190.06 14.62 188.46 13.36 188.46 11.06C188.46 8.84 190.04 7.5 192 7.5C192.88 7.5 193.8 7.82 194.5 8.5L195.54 7.42C194.5 6.4 193.3 5.94 191.96 5.94C189.1 5.94 186.8 7.76 186.8 11.06C186.8 14.36 189.14 16.18 191.96 16.18C193.32 16.18 194.58 15.72 195.64 14.66L195.66 14.68ZM199.832 6.12V16H201.472V10.4C201.472 8.78 202.532 7.5 204.152 7.5C205.792 7.5 206.812 8.78 206.812 10.4V16H208.452V10.4C208.452 8.78 209.532 7.5 211.152 7.5C212.772 7.5 213.712 8.74 213.712 10.36V16H215.352V10.36C215.352 7.66 213.792 5.96 211.192 5.96C209.792 5.96 208.432 6.6 207.712 8.12C207.152 6.54 205.752 5.96 204.392 5.96C203.272 5.96 202.072 6.42 201.472 7.58L201.372 6.14H199.852L199.832 6.12Z" fill="black"/>
<path d="M1.14 230.04C1.12 233.4 4.24 234.3 7.02 234.3C9.84 234.32 12.94 233.38 12.92 230.08C12.9 228.56 11.72 227.18 10.18 226.74C11.64 226.24 12.66 225.12 12.66 223.72C12.64 220.82 9.7 219.72 7.02 219.72C4.32 219.72 1.44 220.84 1.44 223.72C1.44 225.28 2.4 226.2 3.84 226.76C2.28 227.2 1.14 228.5 1.14 230.04ZM10.9 223.68C10.9 225.4 8.66 226.06 7.02 226.06C5.4 226.06 3.2 225.4 3.18 223.68C3.16 221.98 5.18 221.18 7 221.18C8.74 221.18 10.92 221.92 10.9 223.68ZM7.02 227.44C8.7 227.44 11.18 228.14 11.18 230.04C11.18 231.98 8.86 232.7 7 232.7C5.12 232.7 2.88 231.96 2.88 230.02C2.88 228.08 5.32 227.4 7.02 227.44ZM17.4625 233.1C17.4625 234.54 19.6225 234.54 19.6225 233.12C19.6225 231.68 17.4625 231.68 17.4625 233.1ZM26.2481 227V224C26.2481 222.24 28.1281 221.26 30.0681 221.26C32.0081 221.26 33.7681 222.04 33.8281 223.58H35.5681C35.4681 220.96 32.9481 219.78 30.0481 219.78C27.2881 219.78 24.5281 221.12 24.5281 223.98L24.5281 229.7C24.5281 232.86 27.4481 234.22 30.2081 234.22C32.9281 234.22 35.8281 232.9 35.8281 229.76C35.8281 226.5 32.9481 225.3 30.2281 225.3C28.7881 225.3 27.1681 225.74 26.2481 227ZM30.2081 232.62C28.3481 232.62 26.2881 231.84 26.2881 229.76C26.2881 227.78 28.3481 226.86 30.2481 226.86C32.1481 226.86 34.0881 227.68 34.0881 229.76C34.0881 231.86 32.0681 232.6 30.2081 232.62Z" fill="black"/>
<path d="M9.74 256.68L8.64 255.58C7.94 256.3 7 256.62 6.06 256.62C4.14 256.62 2.54 255.36 2.54 253.06C2.54 250.84 4.12 249.5 6.08 249.5C6.96 249.5 7.88 249.82 8.58 250.5L9.62 249.42C8.58 248.4 7.38 247.94 6.04 247.94C3.18 247.94 0.88 249.76 0.88 253.06C0.88 256.36 3.22 258.18 6.04 258.18C7.4 258.18 8.66 257.72 9.72 256.66L9.74 256.68ZM13.9125 248.12V258H15.5525V252.4C15.5525 250.78 16.6125 249.5 18.2325 249.5C19.8725 249.5 20.8925 250.78 20.8925 252.4L20.8925 258H22.5325L22.5325 252.4C22.5325 250.78 23.6125 249.5 25.2325 249.5C26.8525 249.5 27.7925 250.74 27.7925 252.36L27.7925 258H29.4325L29.4325 252.36C29.4325 249.66 27.8725 247.96 25.2725 247.96C23.8725 247.96 22.5125 248.6 21.7925 250.12C21.2325 248.54 19.8325 247.96 18.4725 247.96C17.3525 247.96 16.1525 248.42 15.5525 249.58L15.4525 248.14H13.9325L13.9125 248.12Z" fill="black"/>
</svg>
