<svg width="341" height="71" viewBox="0 0 341 71" fill="none" xmlns="http://www.w3.org/2000/svg">
<rect width="341" height="71" rx="16" fill="white"/>
<rect x="0.75" y="0.75" width="339.5" height="69.5" rx="15.25" stroke="black" stroke-opacity="0.8" stroke-width="1.5"/>
<path d="M73.79 46H76.4V25H73.79V46ZM84.4566 31.18V46H86.8866V38.05C86.8866 35.38 88.7466 33.25 91.4466 33.22C94.2666 33.22 95.9466 34.99 95.9466 37.84V46H98.4066V37.81C98.4066 33.46 95.6466 30.94 91.8966 30.94C89.9166 30.94 88.1166 31.75 86.8266 33.52L86.7066 31.15H84.4566V31.18ZM115.399 34.45L116.809 32.83C115.219 31.39 113.389 30.85 111.169 30.85C108.319 30.82 105.139 32.05 105.169 35.2C105.169 38.35 108.229 39.1 111.079 39.46C113.359 39.73 115.099 40.21 115.069 41.83C115.009 43.63 112.939 44.14 111.319 44.14C109.489 44.14 107.359 43.48 106.039 41.86L104.629 43.57C106.309 45.67 108.769 46.36 111.259 46.36C114.589 46.36 117.409 44.89 117.469 41.92C117.529 38.26 113.929 37.72 111.229 37.39C109.369 37.18 107.569 36.73 107.539 35.2C107.509 33.73 109.159 33.01 111.199 33.04C112.729 33.04 114.079 33.31 115.369 34.48L115.399 34.45ZM128.149 26.86L125.689 27.13V31.21H122.719V33.31H125.689V41.14C125.689 44.41 127.189 46.27 130.369 46.21C131.359 46.18 132.259 45.94 133.249 45.49L132.529 43.45C131.869 43.78 131.119 43.99 130.459 43.99C128.689 43.99 128.119 42.88 128.119 41.14V33.31H132.739V31.21H128.149V26.86ZM151.293 46H153.663V31.18H151.263L151.233 33.88C150.153 31.96 147.963 30.94 145.743 30.94C141.513 30.91 138.123 33.79 138.123 38.59C138.123 43.42 141.453 46.36 145.713 46.36C147.753 46.36 150.003 45.4 151.173 43.36L151.233 46.06L151.293 46ZM145.863 33.25C152.973 33.25 152.973 44.11 145.833 44.11C142.893 44.11 140.523 41.98 140.523 38.68C140.523 35.38 142.893 33.28 145.833 33.28L145.863 33.25ZM159.535 45.94V46H162.265L166.465 40L170.635 46H173.455V45.94L168.025 38.41L173.065 31.27V31.18H170.245L166.465 36.79L162.625 31.18H159.895V31.27L164.875 38.41L159.535 45.94ZM209.034 28.78V46H211.614V25H208.494L201.174 35.8L193.794 25H190.674V46H193.254V28.72L200.874 39.4H201.414L209.034 28.78ZM219.438 26.65C219.438 28.81 222.678 28.81 222.678 26.68C222.678 24.52 219.438 24.52 219.438 26.65ZM219.798 31.12H222.258V46H219.798V31.12ZM229.92 31.18V46H232.35V38.05C232.35 35.38 234.21 33.25 236.91 33.22C239.73 33.22 241.41 34.99 241.41 37.84V46H243.87V37.81C243.87 33.46 241.11 30.94 237.36 30.94C235.38 30.94 233.58 31.75 232.29 33.52L232.17 31.15H229.92V31.18ZM250.962 26.65C250.962 28.81 254.202 28.81 254.202 26.68C254.202 24.52 250.962 24.52 250.962 26.65ZM251.322 31.12H253.782V46H251.322V31.12Z" fill="black" fill-opacity="0.8"/>
<rect x="24.75" y="13.75" width="27.5" height="44.6852" stroke="black" stroke-opacity="0.8" stroke-width="1.5"/>
<rect x="28.0181" y="18.7231" width="21.0556" height="31.7964" stroke="black" stroke-opacity="0.8" stroke-width="1.5"/>
</svg>
