<svg width="315" height="67" viewBox="0 0 315 67" fill="none" xmlns="http://www.w3.org/2000/svg">
<rect width="315" height="67" rx="16" fill="#0D0D0D"/>
<mask id="mask0_54_18" style="mask-type:alpha" maskUnits="userSpaceOnUse" x="0" y="0" width="315" height="67">
<rect width="315" height="67" rx="16" fill="#0D0D0D"/>
</mask>
<g mask="url(#mask0_54_18)">
<g filter="url(#filter0_d_54_18)">
<rect y="59" width="315" height="8" rx="1" fill="url(#paint0_linear_54_18)"/>
</g>
</g>
<path d="M29.89 25.47C28.936 23.526 26.902 22.968 24.94 22.968C22.618 22.986 20.062 24.048 20.062 26.64C20.062 29.466 22.438 30.15 25.012 30.456C26.686 30.636 27.928 31.122 27.928 32.31C27.928 33.678 26.524 34.2 25.03 34.2C23.5 34.2 22.042 33.588 21.484 32.202L19.504 33.228C20.44 35.532 22.42 36.324 24.994 36.324C27.802 36.324 30.286 35.118 30.286 32.31C30.286 29.304 27.838 28.62 25.21 28.296C23.698 28.116 22.402 27.81 22.402 26.712C22.402 25.776 23.248 25.038 25.012 25.038C26.38 25.038 27.568 25.722 28 26.442L29.89 25.47ZM43.7691 33.66H36.6951V30.816H43.5171V28.602H36.6951V25.704H43.7691V23.4H34.3371C34.3371 27.594 34.3371 31.806 34.3371 36H43.7691V33.66ZM48.1978 23.4V36H57.0538V33.804H50.5738V23.4H48.1978ZM70.1722 33.66H63.0982V30.816H69.9202V28.602H63.0982V25.704H70.1722V23.4H60.7402C60.7402 27.594 60.7402 31.806 60.7402 36H70.1722V33.66ZM83.6214 32.778C82.7934 33.606 81.5514 34.056 80.4534 34.056C77.3394 34.056 76.1334 31.878 76.1154 29.79C76.0974 27.684 77.4114 25.416 80.4534 25.416C81.5514 25.416 82.6674 25.794 83.4954 26.604L85.0794 25.074C83.7834 23.796 82.1634 23.148 80.4534 23.148C75.8994 23.148 73.7574 26.496 73.7754 29.79C73.7934 33.066 75.7734 36.288 80.4534 36.288C82.2714 36.288 83.9454 35.694 85.2414 34.416L83.6214 32.778ZM91.3469 36V23.4H88.9889V36H91.3469ZM102.019 23.148C98.3647 23.148 95.4847 25.812 95.4847 29.79C95.4847 33.102 97.5367 36.288 101.965 36.288C106.393 36.288 108.391 33.03 108.427 29.772C108.463 26.496 106.321 23.184 102.019 23.148ZM97.8247 29.826C97.7527 27.324 99.3367 25.308 102.019 25.308C104.917 25.362 106.123 27.702 106.087 29.808C106.051 31.878 104.935 34.11 101.965 34.11C98.9947 34.11 97.8787 31.896 97.8247 29.826ZM114.47 23.4H112.544V36H114.92V27.612L121.616 36H123.542V23.4H121.166V31.878L114.47 23.4ZM137.859 33.66H130.785V30.816H137.607V28.602H130.785V25.704H137.859V23.4H128.427C128.427 27.594 128.427 31.806 128.427 36H137.859V33.66ZM157.069 23.418V30.636C157.069 32.796 155.953 34.11 153.991 34.11C152.029 34.11 150.733 32.904 150.733 30.636V23.418H148.375V30.636C148.375 34.434 150.949 36.27 153.973 36.27C157.141 36.27 159.427 34.362 159.427 30.636V23.418H157.069ZM175.1 36.018H177.476V23.418H174.758L170.816 28.836L166.874 23.418H164.138V36.018H166.514V26.856L170.528 32.346H170.996L175.1 26.874V36.018ZM190.905 36H193.281V25.56H197.277V23.4C193.623 23.4 190.545 23.4 186.909 23.4V25.56H190.905V36ZM209.73 36H212.322L206.67 23.4H204.078L198.426 36H201L202.08 33.624H208.668L209.73 36ZM207.714 31.41H203.034L205.374 26.046L207.714 31.41ZM226.728 36.018H229.104V23.418H226.386L222.444 28.836L218.502 23.418H215.766V36.018H218.142V26.856L222.156 32.346H222.624L226.728 26.874V36.018ZM243.85 36H246.442L240.79 23.4H238.198L232.546 36H235.12L236.2 33.624H242.788L243.85 36ZM241.834 31.41H237.154L239.494 26.046L241.834 31.41ZM251.812 23.4H249.886V36H252.262V27.612L258.958 36H260.884V23.4H258.508V31.878L251.812 23.4ZM276.694 36.018V23.418H274.336V28.728H268.144V23.418H265.768V36.018H268.144V30.924H274.336V36.018H276.694ZM287.376 23.148C283.722 23.148 280.842 25.812 280.842 29.79C280.842 33.102 282.894 36.288 287.322 36.288C291.75 36.288 293.748 33.03 293.784 29.772C293.82 26.496 291.678 23.184 287.376 23.148ZM283.182 29.826C283.11 27.324 284.694 25.308 287.376 25.308C290.274 25.362 291.48 27.702 291.444 29.808C291.408 31.878 290.292 34.11 287.322 34.11C284.352 34.11 283.236 31.896 283.182 29.826Z" fill="white"/>
<defs>
<filter id="filter0_d_54_18" x="-4" y="59" width="323" height="16" filterUnits="userSpaceOnUse" color-interpolation-filters="sRGB">
<feFlood flood-opacity="0" result="BackgroundImageFix"/>
<feColorMatrix in="SourceAlpha" type="matrix" values="0 0 0 0 0 0 0 0 0 0 0 0 0 0 0 0 0 0 127 0" result="hardAlpha"/>
<feOffset dy="4"/>
<feGaussianBlur stdDeviation="2"/>
<feComposite in2="hardAlpha" operator="out"/>
<feColorMatrix type="matrix" values="0 0 0 0 0 0 0 0 0 0 0 0 0 0 0 0 0 0 0.25 0"/>
<feBlend mode="normal" in2="BackgroundImageFix" result="effect1_dropShadow_54_18"/>
<feBlend mode="normal" in="SourceGraphic" in2="effect1_dropShadow_54_18" result="shape"/>
</filter>
<linearGradient id="paint0_linear_54_18" x1="0" y1="63" x2="315" y2="63.0004" gradientUnits="userSpaceOnUse">
<stop stop-color="#FF5B5B"/>
<stop offset="0.230282" stop-color="#EAFF69"/>
<stop offset="0.419637" stop-color="#4BFF73"/>
<stop offset="0.644988" stop-color="#42BBFF"/>
<stop offset="0.781731" stop-color="#923DFF"/>
<stop offset="0.867205" stop-color="#FF77F1"/>
<stop offset="0.960721" stop-color="#FF5353"/>
<stop offset="1" stop-color="#FF0000"/>
</linearGradient>
</defs>
</svg>
