<svg width="350" height="393" viewBox="0 0 350 393" fill="none" xmlns="http://www.w3.org/2000/svg">
<rect x="77.75" y="67.75" width="270.626" height="323.539" stroke="black" stroke-opacity="0.8" stroke-width="1.5"/>
<rect x="96.75" y="101.75" width="232.83" height="232.831" stroke="black" stroke-opacity="0.8" stroke-width="1.5"/>
<path d="M134.86 371H136.6V357H134.86V371ZM141.971 361.12V371H143.591V365.7C143.591 363.92 144.831 362.5 146.631 362.48C148.511 362.48 149.631 363.66 149.631 365.56V371H151.271V365.54C151.271 362.64 149.431 360.96 146.931 360.96C145.611 360.96 144.411 361.5 143.551 362.68L143.471 361.1H141.971V361.12ZM162.599 363.3L163.539 362.22C162.479 361.26 161.259 360.9 159.779 360.9C157.879 360.88 155.759 361.7 155.779 363.8C155.779 365.9 157.819 366.4 159.719 366.64C161.239 366.82 162.399 367.14 162.379 368.22C162.339 369.42 160.959 369.76 159.879 369.76C158.659 369.76 157.239 369.32 156.359 368.24L155.419 369.38C156.539 370.78 158.179 371.24 159.839 371.24C162.059 371.24 163.939 370.26 163.979 368.28C164.019 365.84 161.619 365.48 159.819 365.26C158.579 365.12 157.379 364.82 157.359 363.8C157.339 362.82 158.439 362.34 159.799 362.36C160.819 362.36 161.719 362.54 162.579 363.32L162.599 363.3ZM171.1 358.24L169.46 358.42V361.14H167.48V362.54H169.46V367.76C169.46 369.94 170.46 371.18 172.58 371.14C173.24 371.12 173.84 370.96 174.5 370.66L174.02 369.3C173.58 369.52 173.08 369.66 172.64 369.66C171.46 369.66 171.08 368.92 171.08 367.76V362.54H174.16V361.14H171.1V358.24ZM186.529 371H188.109V361.12H186.509L186.489 362.92C185.769 361.64 184.309 360.96 182.829 360.96C180.009 360.94 177.749 362.86 177.749 366.06C177.749 369.28 179.969 371.24 182.809 371.24C184.169 371.24 185.669 370.6 186.449 369.24L186.489 371.04L186.529 371ZM182.909 362.5C187.649 362.5 187.649 369.74 182.889 369.74C180.929 369.74 179.349 368.32 179.349 366.12C179.349 363.92 180.929 362.52 182.889 362.52L182.909 362.5ZM192.023 370.96V371H193.843L196.643 367L199.423 371H201.303V370.96L197.683 365.94L201.043 361.18V361.12H199.163L196.643 364.86L194.083 361.12H192.263V361.18L195.583 365.94L192.023 370.96ZM221.563 360.06L222.883 359.24C221.643 357.12 219.663 356.7 217.583 356.7C215.163 356.7 212.183 357.7 212.223 360.62C212.223 363.46 214.843 364.08 217.543 364.5C219.643 364.82 221.603 365.32 221.583 367.06C221.583 369.12 219.323 369.66 217.623 369.66C215.903 369.66 214.023 368.86 213.123 367.2L211.683 368.04C212.763 370.38 215.123 371.28 217.603 371.28C220.283 371.28 223.283 370.26 223.303 367.12C223.303 363.96 220.543 363.4 217.743 362.96C215.683 362.62 213.943 362.18 213.943 360.66C213.943 358.96 215.843 358.26 217.623 358.26C219.183 358.28 220.803 358.84 221.563 360.06ZM235.904 375.66H237.524V361.12H235.964L235.904 363.02C235.124 361.7 233.664 360.94 232.104 360.94C229.264 360.98 227.184 362.98 227.184 366.04C227.184 369.18 229.244 371.2 232.204 371.2C233.604 371.2 235.164 370.6 235.944 369.22V375.66H235.904ZM232.344 369.62C230.364 369.62 228.864 368.28 228.864 366.06C228.864 363.84 230.324 362.52 232.344 362.52C234.404 362.52 235.804 364.04 235.804 366.06C235.804 368.08 234.344 369.6 232.364 369.6L232.344 369.62ZM250.279 371H251.799V361.12H250.159V366.42C250.159 368.2 248.919 369.62 247.119 369.64C245.239 369.64 244.119 368.46 244.119 366.56V361.12H242.479V366.58C242.479 369.46 244.259 371.16 246.779 371.16C248.159 371.14 249.339 370.62 250.219 369.42L250.299 371H250.279ZM265.066 371H266.646V361.12H265.046L265.026 362.92C264.306 361.64 262.846 360.96 261.366 360.96C258.546 360.94 256.286 362.86 256.286 366.06C256.286 369.28 258.506 371.24 261.346 371.24C262.706 371.24 264.206 370.6 264.986 369.24L265.026 371.04L265.066 371ZM261.446 362.5C266.186 362.5 266.186 369.74 261.426 369.74C259.466 369.74 257.886 368.32 257.886 366.12C257.886 363.92 259.466 362.52 261.426 362.52L261.446 362.5ZM273.261 361.12H271.741V371H273.381V365.5C273.381 363.68 274.701 362.56 276.281 362.54C276.961 362.54 277.481 362.72 278.001 363.08L278.741 361.68C278.141 361.22 277.301 360.92 276.441 360.94C275.301 360.94 274.081 361.3 273.401 362.58L273.281 361.1L273.261 361.12ZM290.943 369.42L289.843 368.42C289.183 369.22 287.823 369.66 286.703 369.66C284.803 369.66 283.303 368.52 283.123 366.7H291.523C291.903 362.76 289.603 360.9 286.583 360.9C283.603 360.9 281.463 363.04 281.463 366.02C281.463 369.16 283.603 371.18 286.663 371.18C288.203 371.18 289.923 370.6 290.923 369.42H290.943ZM289.963 365.32H283.123C283.403 363.42 284.903 362.38 286.623 362.38C288.563 362.38 289.883 363.42 289.963 365.34V365.32Z" fill="black"/>
<line x1="77.75" y1="24" x2="77.75" y2="45" stroke="black" stroke-opacity="0.8" stroke-width="1.5"/>
<line x1="347.75" y1="24" x2="347.75" y2="45" stroke="black" stroke-opacity="0.8" stroke-width="1.5"/>
<line x1="78.5" y1="33.75" x2="347.5" y2="33.75" stroke="black" stroke-opacity="0.8" stroke-width="1.5"/>
<line x1="38" y1="390.75" x2="59" y2="390.75" stroke="black" stroke-opacity="0.8" stroke-width="1.5"/>
<line x1="38" y1="67.75" x2="59" y2="67.75" stroke="black" stroke-opacity="0.8" stroke-width="1.5"/>
<line x1="47.75" y1="390" x2="47.75" y2="68" stroke="black" stroke-opacity="0.8" stroke-width="1.5"/>
<path d="M185.889 3.64L179.069 16H181.049L188.049 3.12L187.909 2L177.669 2V3.64L185.889 3.64ZM190.781 15.1C190.781 16.54 192.941 16.54 192.941 15.12C192.941 13.68 190.781 13.68 190.781 15.1ZM199.446 5.88C199.466 3.96 201.526 3.36 203.246 3.36C205.026 3.4 206.926 4 206.926 6.04C206.926 8.06 204.626 8.58 203.146 8.58C200.486 8.58 197.606 9.46 197.606 12.62V16H208.586V14.34L199.366 14.34V12.62C199.366 10.62 201.526 10.22 203.166 10.2C205.866 10.2 208.646 9.2 208.646 6.02C208.646 2.9 205.846 1.84 203.246 1.84C200.666 1.84 197.826 2.76 197.706 5.88H199.446ZM228.88 14.68L227.78 13.58C227.08 14.3 226.14 14.62 225.2 14.62C223.28 14.62 221.68 13.36 221.68 11.06C221.68 8.84 223.26 7.5 225.22 7.5C226.1 7.5 227.02 7.82 227.72 8.5L228.76 7.42C227.72 6.4 226.52 5.94 225.18 5.94C222.32 5.94 220.02 7.76 220.02 11.06C220.02 14.36 222.36 16.18 225.18 16.18C226.54 16.18 227.8 15.72 228.86 14.66L228.88 14.68ZM233.053 6.12V16H234.693V10.4C234.693 8.78 235.753 7.5 237.373 7.5C239.013 7.5 240.033 8.78 240.033 10.4V16H241.673V10.4C241.673 8.78 242.753 7.5 244.373 7.5C245.993 7.5 246.933 8.74 246.933 10.36V16H248.573V10.36C248.573 7.66 247.013 5.96 244.413 5.96C243.013 5.96 241.653 6.6 240.933 8.12C240.373 6.54 238.973 5.96 237.613 5.96C236.493 5.96 235.293 6.42 234.693 7.58L234.593 6.14H233.073L233.053 6.12Z" fill="black"/>
<path d="M1.14 218.04C1.12 221.4 4.24 222.3 7.02 222.3C9.84 222.32 12.94 221.38 12.92 218.08C12.9 216.56 11.72 215.18 10.18 214.74C11.64 214.24 12.66 213.12 12.66 211.72C12.64 208.82 9.7 207.72 7.02 207.72C4.32 207.72 1.44 208.84 1.44 211.72C1.44 213.28 2.4 214.2 3.84 214.76C2.28 215.2 1.14 216.5 1.14 218.04ZM10.9 211.68C10.9 213.4 8.66 214.06 7.02 214.06C5.4 214.06 3.2 213.4 3.18 211.68C3.16 209.98 5.18 209.18 7 209.18C8.74 209.18 10.92 209.92 10.9 211.68ZM7.02 215.44C8.7 215.44 11.18 216.14 11.18 218.04C11.18 219.98 8.86 220.7 7 220.7C5.12 220.7 2.88 219.96 2.88 218.02C2.88 216.08 5.32 215.4 7.02 215.44ZM17.4625 221.1C17.4625 222.54 19.6225 222.54 19.6225 221.12C19.6225 219.68 17.4625 219.68 17.4625 221.1ZM26.2481 215V212C26.2481 210.24 28.1281 209.26 30.0681 209.26C32.0081 209.26 33.7681 210.04 33.8281 211.58H35.5681C35.4681 208.96 32.9481 207.78 30.0481 207.78C27.2881 207.78 24.5281 209.12 24.5281 211.98L24.5281 217.7C24.5281 220.86 27.4481 222.22 30.2081 222.22C32.9281 222.22 35.8281 220.9 35.8281 217.76C35.8281 214.5 32.9481 213.3 30.2281 213.3C28.7881 213.3 27.1681 213.74 26.2481 215ZM30.2081 220.62C28.3481 220.62 26.2881 219.84 26.2881 217.76C26.2881 215.78 28.3481 214.86 30.2481 214.86C32.1481 214.86 34.0881 215.68 34.0881 217.76C34.0881 219.86 32.0681 220.6 30.2081 220.62Z" fill="black"/>
<path d="M9.74 244.68L8.64 243.58C7.94 244.3 7 244.62 6.06 244.62C4.14 244.62 2.54 243.36 2.54 241.06C2.54 238.84 4.12 237.5 6.08 237.5C6.96 237.5 7.88 237.82 8.58 238.5L9.62 237.42C8.58 236.4 7.38 235.94 6.04 235.94C3.18 235.94 0.88 237.76 0.88 241.06C0.88 244.36 3.22 246.18 6.04 246.18C7.4 246.18 8.66 245.72 9.72 244.66L9.74 244.68ZM13.9125 236.12V246H15.5525V240.4C15.5525 238.78 16.6125 237.5 18.2325 237.5C19.8725 237.5 20.8925 238.78 20.8925 240.4L20.8925 246H22.5325L22.5325 240.4C22.5325 238.78 23.6125 237.5 25.2325 237.5C26.8525 237.5 27.7925 238.74 27.7925 240.36L27.7925 246H29.4325L29.4325 240.36C29.4325 237.66 27.8725 235.96 25.2725 235.96C23.8725 235.96 22.5125 236.6 21.7925 238.12C21.2325 236.54 19.8325 235.96 18.4725 235.96C17.3525 235.96 16.1525 236.42 15.5525 237.58L15.4525 236.14H13.9325L13.9125 236.12Z" fill="black"/>
</svg>
