<svg width="315" height="67" viewBox="0 0 315 67" fill="none" xmlns="http://www.w3.org/2000/svg">
<rect width="315" height="67" rx="16" fill="#0D0D0D"/>
<path d="M123.846 27.164C122.784 25.472 120.966 25.04 119.148 25.04C116.88 25.04 114.27 26.048 114.288 28.658C114.288 31.358 116.664 31.988 119.166 32.33C120.93 32.564 122.388 33.032 122.388 34.4C122.388 35.984 120.714 36.488 119.202 36.488C117.744 36.488 116.178 35.948 115.278 34.418L113.766 35.426C114.918 37.55 116.772 38.288 119.184 38.288C121.812 38.288 124.386 37.226 124.404 34.4C124.404 31.574 121.938 30.854 119.346 30.494C117.69 30.26 116.286 29.918 116.286 28.694C116.286 27.488 117.51 26.786 119.202 26.786C120.516 26.804 121.722 27.326 122.316 28.19L123.846 27.164ZM134.234 25.13C129.86 25.13 127.772 28.352 127.772 31.664C127.772 34.994 129.788 38.198 134.234 38.198C135.746 38.198 137.006 37.82 137.978 37.136L139.526 38.648L140.93 37.226L139.418 35.732C140.264 34.562 140.678 33.05 140.66 31.574C140.624 28.298 138.608 25.13 134.234 25.13ZM134.234 26.966C137.348 26.966 138.608 29.252 138.662 31.52C138.734 33.878 137.258 36.326 134.234 36.326C131.264 36.326 129.788 34.004 129.77 31.7C129.734 29.342 131.192 26.966 134.234 26.966ZM153.488 25.418V32.78C153.488 35.174 152.012 36.488 149.996 36.38C148.124 36.308 146.792 35.066 146.792 32.78V25.418H144.794V32.78C144.794 36.362 147.188 38.162 149.996 38.234C153.038 38.342 155.486 36.488 155.486 32.78V25.418H153.488ZM169.843 38H171.985L166.333 25.4H164.137L158.485 38H160.627L161.815 35.354H168.637L169.843 38ZM167.899 33.518H162.571L165.235 27.524L167.899 33.518ZM186.269 37.64L182.507 33.446C184.991 33.086 185.927 31.322 185.927 29.522C185.927 27.398 184.397 25.4 181.481 25.4C179.519 25.4 177.575 25.382 175.613 25.382V38H177.629V33.644H180.293L184.127 38H186.485L186.269 37.64ZM181.481 27.236C183.137 27.236 183.875 28.424 183.875 29.558C183.875 30.746 183.137 31.808 181.463 31.808H177.629V27.236H181.481ZM199.782 36.02H192.492V32.636H199.44V30.764H192.492V27.362H199.728V25.4H190.476C190.476 29.594 190.476 33.806 190.476 38H199.782V36.02Z" fill="white"/>
</svg>
