<svg width="341" height="71" viewBox="0 0 341 71" fill="none" xmlns="http://www.w3.org/2000/svg">
<rect width="341" height="71" rx="16" fill="white"/>
<rect x="0.75" y="0.75" width="339.5" height="69.5" rx="15.25" stroke="black" stroke-opacity="0.8" stroke-width="1.5"/>
<path d="M79.79 46H82.4V25H79.79V46ZM90.4566 31.18V46H92.8866V38.05C92.8866 35.38 94.7466 33.25 97.4466 33.22C100.267 33.22 101.947 34.99 101.947 37.84V46H104.407V37.81C104.407 33.46 101.647 30.94 97.8966 30.94C95.9166 30.94 94.1166 31.75 92.8266 33.52L92.7066 31.15H90.4566V31.18ZM121.399 34.45L122.809 32.83C121.219 31.39 119.389 30.85 117.169 30.85C114.319 30.82 111.139 32.05 111.169 35.2C111.169 38.35 114.229 39.1 117.079 39.46C119.359 39.73 121.099 40.21 121.069 41.83C121.009 43.63 118.939 44.14 117.319 44.14C115.489 44.14 113.359 43.48 112.039 41.86L110.629 43.57C112.309 45.67 114.769 46.36 117.259 46.36C120.589 46.36 123.409 44.89 123.469 41.92C123.529 38.26 119.929 37.72 117.229 37.39C115.369 37.18 113.569 36.73 113.539 35.2C113.509 33.73 115.159 33.01 117.199 33.04C118.729 33.04 120.079 33.31 121.369 34.48L121.399 34.45ZM134.149 26.86L131.689 27.13V31.21H128.719V33.31H131.689V41.14C131.689 44.41 133.189 46.27 136.369 46.21C137.359 46.18 138.259 45.94 139.249 45.49L138.529 43.45C137.869 43.78 137.119 43.99 136.459 43.99C134.689 43.99 134.119 42.88 134.119 41.14V33.31H138.739V31.21H134.149V26.86ZM157.293 46H159.663V31.18H157.263L157.233 33.88C156.153 31.96 153.963 30.94 151.743 30.94C147.513 30.91 144.123 33.79 144.123 38.59C144.123 43.42 147.453 46.36 151.713 46.36C153.753 46.36 156.003 45.4 157.173 43.36L157.233 46.06L157.293 46ZM151.863 33.25C158.973 33.25 158.973 44.11 151.833 44.11C148.893 44.11 146.523 41.98 146.523 38.68C146.523 35.38 148.893 33.28 151.833 33.28L151.863 33.25ZM165.535 45.94V46H168.265L172.465 40L176.635 46H179.455V45.94L174.025 38.41L179.065 31.27V31.18H176.245L172.465 36.79L168.625 31.18H165.895V31.27L170.875 38.41L165.535 45.94ZM209.844 29.59L211.824 28.36C209.964 25.18 206.994 24.55 203.874 24.55C200.244 24.55 195.774 26.05 195.834 30.43C195.834 34.69 199.764 35.62 203.814 36.25C206.964 36.73 209.904 37.48 209.874 40.09C209.874 43.18 206.484 43.99 203.934 43.99C201.354 43.99 198.534 42.79 197.184 40.3L195.024 41.56C196.644 45.07 200.184 46.42 203.904 46.42C207.924 46.42 212.424 44.89 212.454 40.18C212.454 35.44 208.314 34.6 204.114 33.94C201.024 33.43 198.414 32.77 198.414 30.49C198.414 27.94 201.264 26.89 203.934 26.89C206.274 26.92 208.704 27.76 209.844 29.59ZM231.356 52.99H233.786V31.18H231.446L231.356 34.03C230.186 32.05 227.996 30.91 225.656 30.91C221.396 30.97 218.276 33.97 218.276 38.56C218.276 43.27 221.366 46.3 225.806 46.3C227.906 46.3 230.246 45.4 231.416 43.33V52.99H231.356ZM226.016 43.93C223.046 43.93 220.796 41.92 220.796 38.59C220.796 35.26 222.986 33.28 226.016 33.28C229.106 33.28 231.206 35.56 231.206 38.59C231.206 41.62 229.016 43.9 226.046 43.9L226.016 43.93ZM252.918 46H255.198V31.18H252.738V39.13C252.738 41.8 250.878 43.93 248.178 43.96C245.358 43.96 243.678 42.19 243.678 39.34V31.18H241.218V39.37C241.218 43.69 243.888 46.24 247.668 46.24C249.738 46.21 251.508 45.43 252.828 43.63L252.948 46H252.918ZM275.099 46H277.469V31.18H275.069L275.039 33.88C273.959 31.96 271.769 30.94 269.549 30.94C265.319 30.91 261.929 33.79 261.929 38.59C261.929 43.42 265.259 46.36 269.519 46.36C271.559 46.36 273.809 45.4 274.979 43.36L275.039 46.06L275.099 46ZM269.669 33.25C276.779 33.25 276.779 44.11 269.639 44.11C266.699 44.11 264.329 41.98 264.329 38.68C264.329 35.38 266.699 33.28 269.639 33.28L269.669 33.25ZM287.391 31.18H285.111V46H287.571V37.75C287.571 35.02 289.551 33.34 291.921 33.31C292.941 33.31 293.721 33.58 294.501 34.12L295.611 32.02C294.711 31.33 293.451 30.88 292.161 30.91C290.451 30.91 288.621 31.45 287.601 33.37L287.421 31.15L287.391 31.18ZM313.914 43.63L312.264 42.13C311.274 43.33 309.234 43.99 307.554 43.99C304.704 43.99 302.454 42.28 302.184 39.55H314.784C315.354 33.64 311.904 30.85 307.374 30.85C302.904 30.85 299.694 34.06 299.694 38.53C299.694 43.24 302.904 46.27 307.494 46.27C309.804 46.27 312.384 45.4 313.884 43.63H313.914ZM312.444 37.48H302.184C302.604 34.63 304.854 33.07 307.434 33.07C310.344 33.07 312.324 34.63 312.444 37.51V37.48Z" fill="black" fill-opacity="0.8"/>
<rect x="20.75" y="13.75" width="37.1707" height="44.69" stroke="black" stroke-opacity="0.8" stroke-width="1.5"/>
<rect x="23.45" y="18.5815" width="31.7997" height="31.7998" stroke="black" stroke-opacity="0.8" stroke-width="1.5"/>
</svg>
