<svg width="341" height="71" viewBox="0 0 341 71" fill="none" xmlns="http://www.w3.org/2000/svg">
<rect width="341" height="71" rx="16" fill="white"/>
<rect x="0.75" y="0.75" width="339.5" height="69.5" rx="15.25" stroke="black" stroke-opacity="0.8" stroke-width="1.5"/>
<path d="M95.7961 46H98.4061V25H95.7961V46ZM106.463 31.18V46H108.893V38.05C108.893 35.38 110.753 33.25 113.453 33.22C116.273 33.22 117.953 34.99 117.953 37.84V46H120.413V37.81C120.413 33.46 117.653 30.94 113.903 30.94C111.923 30.94 110.123 31.75 108.833 33.52L108.713 31.15H106.463V31.18ZM137.405 34.45L138.815 32.83C137.225 31.39 135.395 30.85 133.175 30.85C130.325 30.82 127.145 32.05 127.175 35.2C127.175 38.35 130.235 39.1 133.085 39.46C135.365 39.73 137.105 40.21 137.075 41.83C137.015 43.63 134.945 44.14 133.325 44.14C131.495 44.14 129.365 43.48 128.045 41.86L126.635 43.57C128.315 45.67 130.775 46.36 133.265 46.36C136.595 46.36 139.415 44.89 139.475 41.92C139.535 38.26 135.935 37.72 133.235 37.39C131.375 37.18 129.575 36.73 129.545 35.2C129.515 33.73 131.165 33.01 133.205 33.04C134.735 33.04 136.085 33.31 137.375 34.48L137.405 34.45ZM150.155 26.86L147.695 27.13V31.21H144.725V33.31H147.695V41.14C147.695 44.41 149.195 46.27 152.375 46.21C153.365 46.18 154.265 45.94 155.255 45.49L154.535 43.45C153.875 43.78 153.125 43.99 152.465 43.99C150.695 43.99 150.125 42.88 150.125 41.14V33.31H154.745V31.21H150.155V26.86ZM173.299 46H175.669V31.18H173.269L173.239 33.88C172.159 31.96 169.969 30.94 167.749 30.94C163.519 30.91 160.129 33.79 160.129 38.59C160.129 43.42 163.459 46.36 167.719 46.36C169.759 46.36 172.009 45.4 173.179 43.36L173.239 46.06L173.299 46ZM167.869 33.25C174.979 33.25 174.979 44.11 167.839 44.11C164.899 44.11 162.529 41.98 162.529 38.68C162.529 35.38 164.899 33.28 167.839 33.28L167.869 33.25ZM181.541 45.94V46H184.271L188.471 40L192.641 46H195.461V45.94L190.031 38.41L195.071 31.27V31.18H192.251L188.471 36.79L184.631 31.18H181.901V31.27L186.881 38.41L181.541 45.94ZM209.792 25L217.112 46.03H219.752L225.182 30.31L230.642 46.03H233.252L240.602 25H237.632L231.902 42.37L226.022 25H224.342L218.522 42.37L212.732 25H209.792ZM246.424 26.65C246.424 28.81 249.664 28.81 249.664 26.68C249.664 24.52 246.424 24.52 246.424 26.65ZM246.784 31.12H249.244V46H246.784V31.12ZM271.457 25H269.027V33.88C267.977 31.87 265.577 30.91 263.477 30.91C259.277 30.91 256.007 33.61 256.007 38.59C256.007 43.48 259.277 46.27 263.507 46.27C265.697 46.27 267.857 45.31 269.057 43.27L269.177 45.97H271.487V24.97L271.457 25ZM263.657 33.19C266.597 33.19 268.937 35.35 268.937 38.53C268.937 41.77 266.627 43.93 263.687 43.93C260.807 43.93 258.467 41.98 258.467 38.56C258.467 35.08 260.807 33.19 263.687 33.19H263.657ZM292.419 43.63L290.769 42.13C289.779 43.33 287.739 43.99 286.059 43.99C283.209 43.99 280.959 42.28 280.689 39.55H293.289C293.859 33.64 290.409 30.85 285.879 30.85C281.409 30.85 278.199 34.06 278.199 38.53C278.199 43.24 281.409 46.27 285.999 46.27C288.309 46.27 290.889 45.4 292.389 43.63H292.419ZM290.949 37.48H280.689C281.109 34.63 283.359 33.07 285.939 33.07C288.849 33.07 290.829 34.63 290.949 37.51V37.48Z" fill="black" fill-opacity="0.8"/>
<rect x="17.75" y="13.75" width="56.5061" height="44.69" stroke="black" stroke-opacity="0.8" stroke-width="1.5"/>
<rect x="20.3079" y="18.5815" width="51.3634" height="31.7528" stroke="black" stroke-opacity="0.8" stroke-width="1.5"/>
</svg>
