<svg width="315" height="67" viewBox="0 0 315 67" fill="none" xmlns="http://www.w3.org/2000/svg">
<rect width="315" height="67" rx="16" fill="#0D0D0D"/>
<path d="M148.221 25.4H145.971L142.839 35.102L139.509 25.4H138.213L134.955 35.102L131.751 25.4H129.501L134.073 38.018H135.837L137.493 33.59L138.879 29.342L140.265 33.572L141.939 38.018H143.721L148.221 25.4ZM154.021 38V25.4H152.023V38H154.021ZM159.081 25.4V38C160.593 38 162.339 38 163.851 38C168.261 38 170.241 34.778 170.169 31.592C170.115 28.478 168.153 25.4 163.851 25.4H159.081ZM161.079 27.326H163.851C166.821 27.326 168.117 29.45 168.171 31.574C168.225 33.788 166.929 36.056 163.851 36.056H161.079V27.326ZM183.777 36.02H176.487V32.636H183.435V30.764H176.487V27.362H183.723V25.4H174.471C174.471 29.594 174.471 33.806 174.471 38H183.777V36.02Z" fill="white"/>
</svg>
