<svg width="486" height="394" viewBox="0 0 486 394" fill="none" xmlns="http://www.w3.org/2000/svg">
<rect x="77.75" y="68.75" width="406.689" height="323.539" stroke="black" stroke-opacity="0.8" stroke-width="1.5"/>
<rect x="95.75" y="102.75" width="370.5" height="232.5" stroke="black" stroke-opacity="0.8" stroke-width="1.5"/>
<path d="M215.86 372H217.6V358H215.86V372ZM222.971 362.12V372H224.591V366.7C224.591 364.92 225.831 363.5 227.631 363.48C229.511 363.48 230.631 364.66 230.631 366.56V372H232.271V366.54C232.271 363.64 230.431 361.96 227.931 361.96C226.611 361.96 225.411 362.5 224.551 363.68L224.471 362.1H222.971V362.12ZM243.599 364.3L244.539 363.22C243.479 362.26 242.259 361.9 240.779 361.9C238.879 361.88 236.759 362.7 236.779 364.8C236.779 366.9 238.819 367.4 240.719 367.64C242.239 367.82 243.399 368.14 243.379 369.22C243.339 370.42 241.959 370.76 240.879 370.76C239.659 370.76 238.239 370.32 237.359 369.24L236.419 370.38C237.539 371.78 239.179 372.24 240.839 372.24C243.059 372.24 244.939 371.26 244.979 369.28C245.019 366.84 242.619 366.48 240.819 366.26C239.579 366.12 238.379 365.82 238.359 364.8C238.339 363.82 239.439 363.34 240.799 363.36C241.819 363.36 242.719 363.54 243.579 364.32L243.599 364.3ZM252.1 359.24L250.46 359.42V362.14H248.48V363.54H250.46V368.76C250.46 370.94 251.46 372.18 253.58 372.14C254.24 372.12 254.84 371.96 255.5 371.66L255.02 370.3C254.58 370.52 254.08 370.66 253.64 370.66C252.46 370.66 252.08 369.92 252.08 368.76V363.54H255.16V362.14H252.1V359.24ZM267.529 372H269.109V362.12H267.509L267.489 363.92C266.769 362.64 265.309 361.96 263.829 361.96C261.009 361.94 258.749 363.86 258.749 367.06C258.749 370.28 260.969 372.24 263.809 372.24C265.169 372.24 266.669 371.6 267.449 370.24L267.489 372.04L267.529 372ZM263.909 363.5C268.649 363.5 268.649 370.74 263.889 370.74C261.929 370.74 260.349 369.32 260.349 367.12C260.349 364.92 261.929 363.52 263.889 363.52L263.909 363.5ZM273.023 371.96V372H274.843L277.643 368L280.423 372H282.303V371.96L278.683 366.94L282.043 362.18V362.12H280.163L277.643 365.86L275.083 362.12H273.263V362.18L276.583 366.94L273.023 371.96ZM291.857 358L296.737 372.02H298.497L302.117 361.54L305.757 372.02H307.497L312.397 358H310.417L306.597 369.58L302.677 358H301.557L297.677 369.58L293.817 358H291.857ZM316.279 359.1C316.279 360.54 318.439 360.54 318.439 359.12C318.439 357.68 316.279 357.68 316.279 359.1ZM316.519 362.08H318.159V372H316.519V362.08ZM332.967 358H331.347V363.92C330.647 362.58 329.047 361.94 327.647 361.94C324.847 361.94 322.667 363.74 322.667 367.06C322.667 370.32 324.847 372.18 327.667 372.18C329.127 372.18 330.567 371.54 331.367 370.18L331.447 371.98H332.987V357.98L332.967 358ZM327.767 363.46C329.727 363.46 331.287 364.9 331.287 367.02C331.287 369.18 329.747 370.62 327.787 370.62C325.867 370.62 324.307 369.32 324.307 367.04C324.307 364.72 325.867 363.46 327.787 363.46H327.767ZM346.942 370.42L345.842 369.42C345.182 370.22 343.822 370.66 342.702 370.66C340.802 370.66 339.302 369.52 339.122 367.7H347.522C347.902 363.76 345.602 361.9 342.582 361.9C339.602 361.9 337.462 364.04 337.462 367.02C337.462 370.16 339.602 372.18 342.662 372.18C344.202 372.18 345.922 371.6 346.922 370.42H346.942ZM345.962 366.32H339.122C339.402 364.42 340.902 363.38 342.622 363.38C344.562 363.38 345.882 364.42 345.962 366.34V366.32Z" fill="black"/>
<line x1="77.75" y1="25" x2="77.75" y2="46" stroke="black" stroke-opacity="0.8" stroke-width="1.5"/>
<line x1="483.75" y1="25" x2="483.75" y2="46" stroke="black" stroke-opacity="0.8" stroke-width="1.5"/>
<line x1="78.5" y1="34.75" x2="483.5" y2="34.75" stroke="black" stroke-opacity="0.8" stroke-width="1.5"/>
<line x1="38" y1="391.75" x2="59" y2="391.75" stroke="black" stroke-opacity="0.8" stroke-width="1.5"/>
<line x1="38" y1="68.75" x2="59" y2="68.75" stroke="black" stroke-opacity="0.8" stroke-width="1.5"/>
<line x1="47.75" y1="391" x2="47.75" y2="69" stroke="black" stroke-opacity="0.8" stroke-width="1.5"/>
<path d="M238.289 15.54V17H245.169V15.54H242.629V3L238.429 4.24V5.84L240.889 5.18V15.54H238.289ZM249.026 8.6V11.4C249.026 19.16 260.346 19.14 260.346 11.4V8.6C260.346 0.859999 249.026 0.839999 249.026 8.6ZM250.766 11.4V8.6C250.766 3.02 258.606 3.06 258.606 8.58V11.38C258.606 16.96 250.766 16.98 250.766 11.4ZM264.995 16.1C264.995 17.54 267.155 17.54 267.155 16.12C267.155 14.68 264.995 14.68 264.995 16.1ZM271.701 13.04C271.681 16.4 274.801 17.3 277.581 17.3C280.401 17.32 283.501 16.38 283.481 13.08C283.461 11.56 282.281 10.18 280.741 9.74C282.201 9.24 283.221 8.12 283.221 6.72C283.201 3.82 280.261 2.72 277.581 2.72C274.881 2.72 272.001 3.84 272.001 6.72C272.001 8.28 272.961 9.2 274.401 9.76C272.841 10.2 271.701 11.5 271.701 13.04ZM281.461 6.68C281.461 8.4 279.221 9.06 277.581 9.06C275.961 9.06 273.761 8.4 273.741 6.68C273.721 4.98 275.741 4.18 277.561 4.18C279.301 4.18 281.481 4.92 281.461 6.68ZM277.581 10.44C279.261 10.44 281.741 11.14 281.741 13.04C281.741 14.98 279.421 15.7 277.561 15.7C275.681 15.7 273.441 14.96 273.441 13.02C273.441 11.08 275.881 10.4 277.581 10.44ZM303.68 15.68L302.58 14.58C301.88 15.3 300.94 15.62 300 15.62C298.08 15.62 296.48 14.36 296.48 12.06C296.48 9.84 298.06 8.5 300.02 8.5C300.9 8.5 301.82 8.82 302.52 9.5L303.56 8.42C302.52 7.4 301.32 6.94 299.98 6.94C297.12 6.94 294.82 8.76 294.82 12.06C294.82 15.36 297.16 17.18 299.98 17.18C301.34 17.18 302.6 16.72 303.66 15.66L303.68 15.68ZM307.853 7.12V17H309.493V11.4C309.493 9.78 310.553 8.5 312.173 8.5C313.813 8.5 314.833 9.78 314.833 11.4V17H316.473V11.4C316.473 9.78 317.553 8.5 319.173 8.5C320.793 8.5 321.733 9.74 321.733 11.36V17H323.373V11.36C323.373 8.66 321.813 6.96 319.213 6.96C317.813 6.96 316.453 7.6 315.733 9.12C315.173 7.54 313.773 6.96 312.413 6.96C311.293 6.96 310.093 7.42 309.493 8.58L309.393 7.14H307.873L307.853 7.12Z" fill="black"/>
<path d="M1.14 219.04C1.12 222.4 4.24 223.3 7.02 223.3C9.84 223.32 12.94 222.38 12.92 219.08C12.9 217.56 11.72 216.18 10.18 215.74C11.64 215.24 12.66 214.12 12.66 212.72C12.64 209.82 9.7 208.72 7.02 208.72C4.32 208.72 1.44 209.84 1.44 212.72C1.44 214.28 2.4 215.2 3.84 215.76C2.28 216.2 1.14 217.5 1.14 219.04ZM10.9 212.68C10.9 214.4 8.66 215.06 7.02 215.06C5.4 215.06 3.2 214.4 3.18 212.68C3.16 210.98 5.18 210.18 7 210.18C8.74 210.18 10.92 210.92 10.9 212.68ZM7.02 216.44C8.7 216.44 11.18 217.14 11.18 219.04C11.18 220.98 8.86 221.7 7 221.7C5.12 221.7 2.88 220.96 2.88 219.02C2.88 217.08 5.32 216.4 7.02 216.44ZM17.4625 222.1C17.4625 223.54 19.6225 223.54 19.6225 222.12C19.6225 220.68 17.4625 220.68 17.4625 222.1ZM26.2481 216V213C26.2481 211.24 28.1281 210.26 30.0681 210.26C32.0081 210.26 33.7681 211.04 33.8281 212.58H35.5681C35.4681 209.96 32.9481 208.78 30.0481 208.78C27.2881 208.78 24.5281 210.12 24.5281 212.98L24.5281 218.7C24.5281 221.86 27.4481 223.22 30.2081 223.22C32.9281 223.22 35.8281 221.9 35.8281 218.76C35.8281 215.5 32.9481 214.3 30.2281 214.3C28.7881 214.3 27.1681 214.74 26.2481 216ZM30.2081 221.62C28.3481 221.62 26.2881 220.84 26.2881 218.76C26.2881 216.78 28.3481 215.86 30.2481 215.86C32.1481 215.86 34.0881 216.68 34.0881 218.76C34.0881 220.86 32.0681 221.6 30.2081 221.62Z" fill="black"/>
<path d="M9.74 245.68L8.64 244.58C7.94 245.3 7 245.62 6.06 245.62C4.14 245.62 2.54 244.36 2.54 242.06C2.54 239.84 4.12 238.5 6.08 238.5C6.96 238.5 7.88 238.82 8.58 239.5L9.62 238.42C8.58 237.4 7.38 236.94 6.04 236.94C3.18 236.94 0.88 238.76 0.88 242.06C0.88 245.36 3.22 247.18 6.04 247.18C7.4 247.18 8.66 246.72 9.72 245.66L9.74 245.68ZM13.9125 237.12V247H15.5525V241.4C15.5525 239.78 16.6125 238.5 18.2325 238.5C19.8725 238.5 20.8925 239.78 20.8925 241.4L20.8925 247H22.5325L22.5325 241.4C22.5325 239.78 23.6125 238.5 25.2325 238.5C26.8525 238.5 27.7925 239.74 27.7925 241.36L27.7925 247H29.4325L29.4325 241.36C29.4325 238.66 27.8725 236.96 25.2725 236.96C23.8725 236.96 22.5125 237.6 21.7925 239.12C21.2325 237.54 19.8325 236.96 18.4725 236.96C17.3525 236.96 16.1525 237.42 15.5525 238.58L15.4525 237.14H13.9325L13.9125 237.12Z" fill="black"/>
</svg>
